<svg xmlns="http://www.w3.org/2000/svg" viewBox="0 0 50 50"><defs><style>.cls-1{fill:#231f20;}</style></defs><title>polito50neroSVG</title><g id="Foreground"><path class="cls-1" d="M.37,25A24.63,24.63,0,1,0,25,.37,24.63,24.63,0,0,0,.37,25ZM0,25A25,25,0,1,1,25,50,25,25,0,0,1,0,25Z"/><circle class="cls-1" cx="25.65" cy="6.3" r="0.51"/><circle class="cls-1" cx="27.03" cy="6.4" r="0.51"/><circle class="cls-1" cx="28.41" cy="6.61" r="0.51"/><circle class="cls-1" cx="29.76" cy="6.91" r="0.51"/><circle class="cls-1" cx="31.09" cy="7.31" r="0.51"/><circle class="cls-1" cx="32.39" cy="7.82" r="0.51"/><circle class="cls-1" cx="33.64" cy="8.41" r="0.51"/><circle class="cls-1" cx="34.85" cy="9.1" r="0.51"/><circle class="cls-1" cx="36" cy="9.88" r="0.51"/><circle class="cls-1" cx="37.1" cy="10.73" r="0.51"/><circle class="cls-1" cx="38.12" cy="11.67" r="0.51"/><circle class="cls-1" cx="39.08" cy="12.68" r="0.51"/><circle class="cls-1" cx="39.95" cy="13.76" r="0.51"/><circle class="cls-1" cx="40.75" cy="14.9" r="0.51" transform="translate(-0.19 0.54) rotate(-0.75)"/><circle class="cls-1" cx="41.45" cy="16.1" r="0.51" transform="translate(-0.21 0.55) rotate(-0.76)"/><circle class="cls-1" cx="42.07" cy="17.34" r="0.51" transform="translate(-0.23 0.56) rotate(-0.76)"/><circle class="cls-1" cx="42.59" cy="18.63" r="0.51" transform="translate(-0.24 0.57) rotate(-0.76)"/><circle class="cls-1" cx="43.02" cy="19.95" r="0.51" transform="translate(-0.26 0.58) rotate(-0.76)"/><circle class="cls-1" cx="43.34" cy="21.3" r="0.51" transform="translate(-0.28 0.58) rotate(-0.76)"/><circle class="cls-1" cx="43.57" cy="22.67" r="0.51" transform="translate(-0.3 0.58) rotate(-0.76)"/><circle class="cls-1" cx="43.69" cy="24.06" r="0.51" transform="translate(-0.32 0.58) rotate(-0.76)"/><circle class="cls-1" cx="43.71" cy="25.44" r="0.51" transform="translate(-0.33 0.58) rotate(-0.76)"/><circle class="cls-1" cx="43.63" cy="26.83" r="0.51" transform="translate(-0.35 0.59) rotate(-0.77)"/><circle class="cls-1" cx="43.45" cy="28.21" r="0.51"/><circle class="cls-1" cx="43.16" cy="29.57" r="0.51" transform="translate(-0.38 0.56) rotate(-0.75)"/><circle class="cls-1" cx="42.77" cy="30.9" r="0.51" transform="translate(-0.41 0.57) rotate(-0.76)"/><circle class="cls-1" cx="42.29" cy="32.2" r="0.51" transform="translate(-0.42 0.55) rotate(-0.75)"/><circle class="cls-1" cx="41.04" cy="34.68" r="0.51" transform="translate(-0.46 0.55) rotate(-0.76)"/><circle class="cls-1" cx="40.28" cy="35.85" r="0.51" transform="translate(-0.46 0.52) rotate(-0.74)"/><circle class="cls-1" cx="39.43" cy="36.95" r="0.51" transform="translate(-12.65 22.52) rotate(-27.66)"/><circle class="cls-1" cx="38.51" cy="37.99" r="0.51" transform="translate(-0.5 0.52) rotate(-0.76)"/><circle class="cls-1" cx="37.51" cy="38.95" r="0.51" transform="translate(-0.52 0.5) rotate(-0.76)"/><circle class="cls-1" cx="36.44" cy="39.84" r="0.51" transform="translate(-16.87 31.28) rotate(-38.43)"/><circle class="cls-1" cx="35.31" cy="40.65" r="0.51" transform="translate(-0.55 0.48) rotate(-0.77)"/><circle class="cls-1" cx="34.13" cy="41.37" r="0.51" transform="translate(-11.18 12.68) rotate(-18.13)"/><circle class="cls-1" cx="32.89" cy="42.01" r="0.51" transform="translate(-20.3 46.19) rotate(-56.44)"/><circle class="cls-1" cx="31.61" cy="42.55" r="0.51" transform="translate(-21.32 45.35) rotate(-56.42)"/><circle class="cls-1" cx="30.29" cy="42.99" r="0.51" transform="translate(-22.28 44.46) rotate(-56.44)"/><circle class="cls-1" cx="20.97" cy="6.72" r="0.51"/><circle class="cls-1" cx="19.63" cy="7.07" r="0.51"/><circle class="cls-1" cx="18.31" cy="7.52" r="0.51"/><circle class="cls-1" cx="17.03" cy="8.06" r="0.51"/><circle class="cls-1" cx="15.8" cy="8.7" r="0.51"/><circle class="cls-1" cx="14.61" cy="9.42" r="0.51"/><circle class="cls-1" cx="13.48" cy="10.23" r="0.51"/><circle class="cls-1" cx="12.42" cy="11.12" r="0.51"/><circle class="cls-1" cx="11.42" cy="12.09" r="0.51"/><circle class="cls-1" cx="10.5" cy="13.13" r="0.51"/><circle class="cls-1" cx="9.66" cy="14.24" r="0.51"/><circle class="cls-1" cx="8.9" cy="15.4" r="0.51"/><circle class="cls-1" cx="8.23" cy="16.62" r="0.51"/><circle class="cls-1" cx="7.66" cy="17.89" r="0.51"/><circle class="cls-1" cx="7.18" cy="19.19" r="0.51"/><circle class="cls-1" cx="6.79" cy="20.52" r="0.51"/><circle class="cls-1" cx="6.51" cy="21.88" r="0.51"/><circle class="cls-1" cx="6.33" cy="23.26" r="0.51"/><circle class="cls-1" cx="6.25" cy="24.65" r="0.51"/><circle class="cls-1" cx="6.27" cy="26.04" r="0.51"/><circle class="cls-1" cx="6.4" cy="27.42" r="0.51"/><circle class="cls-1" cx="6.63" cy="28.79" r="0.51"/><circle class="cls-1" cx="6.96" cy="30.14" r="0.51"/><circle class="cls-1" cx="7.38" cy="31.46" r="0.51"/><circle class="cls-1" cx="8.53" cy="33.99" r="0.51"/><circle class="cls-1" cx="9.24" cy="35.19" r="0.51"/><circle class="cls-1" cx="10.04" cy="36.32" r="0.51"/><circle class="cls-1" cx="10.91" cy="37.4" r="0.51" transform="translate(-0.49 0.15) rotate(-0.75)"/><circle class="cls-1" cx="11.87" cy="38.41" r="0.51" transform="translate(-0.51 0.16) rotate(-0.76)"/><circle class="cls-1" cx="12.9" cy="39.34" r="0.51" transform="translate(-0.51 0.17) rotate(-0.75)"/><circle class="cls-1" cx="13.99" cy="40.2" r="0.51" transform="translate(-20.69 15.52) rotate(-35.37)"/><circle class="cls-1" cx="15.15" cy="40.97" r="0.51" transform="translate(-28.52 39.88) rotate(-68.28)"/><circle class="cls-1" cx="16.36" cy="41.66" r="0.51" transform="matrix(1, -0.01, 0.01, 1, -0.55, 0.22)"/><circle class="cls-1" cx="17.61" cy="42.25" r="0.51" transform="translate(-28.15 42.99) rotate(-68.3)"/><circle class="cls-1" cx="18.91" cy="42.75" r="0.51" transform="translate(-27.8 44.5) rotate(-68.28)"/><path class="cls-1" d="M24.42,7a.42.42,0,0,0-.65-.31A7.51,7.51,0,0,0,20.57,9c-1,1.22-.72,3-.38,4.37.58,1.83,2.66,3.16,2.37,5.34h.13a2.92,2.92,0,0,0,.4-2.63c-.14-.65-.77-1.15-.74-1.82-.85-1-1.49-2.5-.77-3.79a4.76,4.76,0,0,1,3.09-2.12C24.46,7.94,24.57,7.5,24.42,7Zm4.44,5c-.85-.83-1.53-1.74-2.41-2.59A2.36,2.36,0,0,0,24.21,9a3.35,3.35,0,0,0-2.41,2.37,3.29,3.29,0,0,0,1.67,3c.88-.4,1.22-1.47,2.21-1.73a.68.68,0,0,1,.25.49.55.55,0,0,0,.56.38,2.36,2.36,0,0,1,2.34-.09c.25-.05.85.18.9-.25-.47-.68-1.33-.83-2-1.29a.54.54,0,0,1,.13-.43c.07,0,.11-.05.18,0a.74.74,0,0,1,.34.43C28.56,11.89,28.72,12.18,28.86,12Zm-3,2.25c-.13-.45-.07-1-.58-1.11a3.23,3.23,0,0,0-1.2,1.8c.14.25,0,.72.31.79C24.87,15.25,25.73,15,25.9,14.28Zm2.72-.47a1.19,1.19,0,0,0-1-.22,4.27,4.27,0,0,1-1.08.59c0,.92-1,1.33-1.6,1.91-.49.83.14,2-.77,2.5,0,.18.14.29.22.43a3.19,3.19,0,0,0,2.64.56c.16-.05.4-.23.38-.43-.84-.41-.31-1.31-.65-2,.23-.27.61.13,1,0s.14-.32.14-.52,0-.31.22-.34l-.31-.22c.09-.29.27,0,.43-.13,0-.31.38-.23.52-.31A16.08,16.08,0,0,1,28.61,13.82ZM25,7.9c.13,1.22,1.66.84,2,1.79l.1.09,2.17,2.44c-.05.52.65.7.83,1.17a1.32,1.32,0,0,1-1.17.38c-.36.47,0,1,0,1.56.34.72-.68.41-.61,1.08-.49.22.07.81-.47,1-.29.09-.77-.05-.79.38s-.13,1,.49,1.17a.49.49,0,0,1,0,.56,3.19,3.19,0,0,1-3.4-.22,2,2,0,0,1-.58-.47c-.14-.54.5-.45.7-.83V16.53c-.45-.23-.23-.7-.34-1-.18-.13,0-.23-.14-.38l-.59-.27c-.22.13,0,.31-.05.49.41,1.1.76,2.71-.13,3.7a.71.71,0,0,1-.68.25A6.79,6.79,0,0,1,22.26,18a2.11,2.11,0,0,0-.13-.74c-1.6-2.19-3.34-4.91-2.25-7.64C20.52,8,22,7.43,23.31,6.52c.43-.22.88-.61,1.33-.16Z"/><path class="cls-1" d="M27.84,11.35a1.84,1.84,0,0,1-.7.52c-.23-.22-.07-.65,0-.92C27.42,10.76,27.75,11,27.84,11.35Z"/><path class="cls-1" d="M14.24,13.38l-.43-.65c-.31,0-.29.34-.36.56a9,9,0,0,1,1.22,2.5h.13A5.34,5.34,0,0,0,14.24,13.38Zm-.31,1.42A3.87,3.87,0,0,0,12.73,13c.14,1.13.11,2.45,1,3.31.16,0,.34.2.49,0A2.84,2.84,0,0,0,13.94,14.8Zm21.24,1.46c-.07-.18-.22-.18-.36-.29-.27.07-.2.38-.22.59a.76.76,0,0,0,.52.13ZM17.34,17.83a6.59,6.59,0,0,0-1.73-1.6c-.14,1,.59,1.73,1.13,2.5a1.79,1.79,0,0,0,1.11.52c0-.09,0-.23,0-.31A2.55,2.55,0,0,0,17.34,17.83Zm-2.63,0c-.14-.63-.93-.45-1.38-.74l0,.09c.86,1.19,2,2.37,3.54,2.12-.27-1.37-1.15.54-1.6-.65a3.39,3.39,0,0,1,0-.61C15,18.15,14.87,18,14.71,17.86Zm19.46,0c-.16-.34-.61-.11-.72-.49-.29.2.22.59-.27.74-.25-.07-.38-.58-.68-.38-.4.36,0,.83,0,1.24-.14.61-.59,0-.77,0a2.21,2.21,0,0,0-.14,1l.22,0c.25,0,.16-.25.14-.38s.25,0,.34,0a1.51,1.51,0,0,0,.47-1c.13-.13.31,0,.31.18a.77.77,0,0,0,.61-.43c.29.14.56-.29.81-.14,0,.2-.31.32-.43.4.05.07.13.07.18.13-.16.49-1-.07-1.17.56.16,0,.41-.05.47.14a.5.5,0,0,1-.43.13c-.18.11-.47.22-.47.47.25.07.47.41.83.34s-.16-.22-.09-.38c.36-.67.9.5,1.29-.27.2-.47-.59.07-.43-.47.36-.38,1-.11,1.29-.61l-.09-.07c-.72-.2.29-.52,0-.92S34.54,17.75,34.17,17.83ZM21.4,20.88a4.76,4.76,0,0,0-2.77-2.19,3.59,3.59,0,0,0,.92,1.6c.32.38.52-.5,1-.27s.4.67.4,1C21.1,21,21.31,21.12,21.4,20.88Zm9.4-1.51c-.07-.25-.36-.07-.34.09C30.57,19.43,30.79,19.53,30.8,19.37ZM29.2,20.5c-.25-.09-.25-.41-.43-.61-.43.13-.45.68-.86.9l-.34-.22c-.2.32-.54.63-.34,1,.23.09.23-.34.43-.22a1.19,1.19,0,0,0,1-.68c.14.05.07.2.09.29l.4-.13c.07,0,0,.13,0,.18l-.61.31c.05.56-.76.09-1,.5l.27.31-.09.09c-.13,0-.18-.05-.27-.13s-.59-.14-.72.09c.05.09.23.14.16.29l-.52.05.36.34c.52.31.36-.32.65-.52s.4.25.59.34.58.32.83,0c-.13-.2-.41-.22-.43-.5.38-.56.85.23,1.29-.09.2-.4-.34-.5-.43-.77l.59-.43a.42.42,0,0,0,0-.58C29.62,20.05,29.38,20.4,29.2,20.5ZM31,20.07c-.07-.07-.14-.18-.27-.14-.07.2.14.18.22.27A.13.13,0,0,0,31,20.07Zm-12,.56c-.81-.74-2.12-.59-3.2-.49A3.06,3.06,0,0,0,19,20.63Zm5.39,1A4.4,4.4,0,0,0,22,20.07c-.05.36.45.59.68.9a4.35,4.35,0,0,0,1.6,1Zm8.85-1c-.2-.18-.67-.38-.83,0,0,.2,0,.27,0,.43s.58.29.79,0ZM32,20.63c-.16,0-.2.14-.22.25s.13.49.34.4A1.14,1.14,0,0,1,32,20.63Zm-1.47.43a.61.61,0,0,0-.13-.4l-.22.31Zm1.17.25c-.13-.16-.23-.41-.52-.34s-.22.36-.25.56.36.18.56.22C31.58,21.62,31.74,21.51,31.67,21.31Zm-9.93.22a4.47,4.47,0,0,0-3.27.09,1.46,1.46,0,0,0,.38.18c.92.22,2.14.56,2.89-.14Zm8.68.4c-.11-.18,0-.45-.14-.61s-.22.09-.34.13a3,3,0,0,0,.13.58C30.19,22,30.36,22.09,30.43,21.92Zm-3.67-.18c0-.14-.16-.23-.18-.38-.22,0-.29.27-.43.34.13.13.4-.07.47.16ZM22.82,22c-.09-.09-.23,0-.34-.05v.09C22.59,22,22.73,22.09,22.82,22Zm1.47.56-.13-.13a5,5,0,0,0-3,.38,7,7,0,0,0,2.59.09C24,22.84,24.22,22.77,24.3,22.57ZM13.2,13c.32-.16.22-.65.61-.65a7.08,7.08,0,0,1,1.37,4.53c.07,0,.09-.05.14-.07,0-.32-.14-.76.16-1a8,8,0,0,1,3,3.72l.13,0a4.85,4.85,0,0,1-.29-1.38,9.77,9.77,0,0,1,4.14,3.24c.18.05.4.29.56.14a6,6,0,0,1-1.55-1.82,6.19,6.19,0,0,1,3.24,1.67c.32,0,.74-.22,1,.05.31-.11.49-.7.92-.56l.16.29c.36-.27.47-1.35,1.08-.93a2,2,0,0,1,1-.58c.09.14.13.32.29.43.27-.2.58-.09.74-.47s.29-.45.49-.61c.41-.22.63.41.9.58.11-.36.09-.88.52-1,.09,0,.14.13.22.18.14-.36-.18-1,.34-1.29.11-.07.25,0,.4,0s.13.32.34.25c-.11-.25.16-.38.25-.56.52.13.63-.41.92-.7a.85.85,0,0,1,.47-.77c.34,0,.41-1,.77-.34.09,0,.13,0,.18-.09-.27-.31-.56-.61-.43-1.08s.61-.09.81-.31c-.09-.36-.38-.83-.07-1.2a.68.68,0,0,1,.65-.09,1.8,1.8,0,0,1,.43.4c.25-.09.18-.43.47-.52s.45.4.61.61-.11.47-.05.74c.34.11.31.41.31.72s-.58.43-.74.7c.16,0,.38.05.43.25s0,.14,0,.18H38c0-.11-.09-.2-.18-.22s-.45.11-.5-.13c.13-.54,1.4-.68.68-1.22-.29-.31.2-.65,0-1.08a.81.81,0,0,0-.4-.34c-.22.16-.11.43-.25.61-.36.09-.52-.61-.92-.61s-.22.2-.38.27c0,.49.59,1,.13,1.37-.29.11-.5-.4-.74,0-.18.58.88.9.25,1.42-.23,0-.29-.5-.5-.13a1.8,1.8,0,0,0,.56,1c.14-.09.09-.29,0-.4.32.11.38-.32.52-.52l0-.52c.16,0,0,.25.18.31a1.83,1.83,0,0,0,.31-1c.07.05,0,.18.13.22s.31-.18.47-.25c0,.5-.65.52-.65,1l.22.18c-.22.14-.54.36-.59.65l.13.22c-.22,0-.36.23-.52.38a.22.22,0,0,0,.09.22,1.55,1.55,0,0,0,1-.47c0-.14-.07-.27,0-.43.2-.23.52-.16.77-.31V16c-.13.25-.58,0-.65.4.27.23,0,.5-.22.65-.45.14-1,.16-1.26.65.16.2-.11.31-.16.47l-.09.09c.09.23.47.31.25.59-.18.49-1.13.18-.86,1-.14.27-.41.22-.59.4l-.49-.13c-.09.13.23.52-.16.47a1.2,1.2,0,0,1-.61.83c-.83,0-1.19.77-2,.72-.45,0-.68.56-1.15.27-.23.34-.45-.11-.74,0,.16.23-.11.54-.27.7a1.28,1.28,0,0,1-1-.14c-.13.49-.63.18-.92.31-.38,0-.76-.49-1.11-.22s-.67.16-1,.13c-.45-.34-1,.13-1.51.09a3.63,3.63,0,0,1-2.54-.52c.07-.09.34-.13.34-.34-1.1-.09-2.43-.05-3.2-.86a1.51,1.51,0,0,0,.43-.25A5.31,5.31,0,0,1,15,19.93,15,15,0,0,0,17,19.68c-2,.27-3.42-1.58-4.41-3,.45-.22.77.22,1.17.13-.07-.25-.47-.45-.56-.74s-.41-.7-.36-1.15c-.25-.14,0-.47-.16-.65a9.42,9.42,0,0,1-.18-1.87A4,4,0,0,1,13.2,13Z"/><path class="cls-1" d="M28.43,14c-.22-.14-.52.05-.74.16,0,.14.14.07.22.09s.22-.22.36,0l-.18.38a2.79,2.79,0,0,1-.9-.43C27.62,14.19,28.11,13.6,28.43,14Z"/><path class="cls-1" d="M39.31,23.43v.16h.13v-.16Zm-3.79,1.08c-.22,0-.34.22-.49.25h.22C35.34,24.68,35.53,24.68,35.52,24.51Zm.81.65c0-.05-.07,0-.13-.05s0,.14.05.18S36.34,25.22,36.32,25.16Zm-6,1.6c-.05-.05-.23-.09-.22,0S30.37,26.83,30.37,26.76Zm8.72.72c-.14-.13-.43-.13-.43.05ZM31.45,32.1c-.11-.32.23-.67-.13-.9l-.34.52C31.18,31.83,31.11,32.25,31.45,32.1Zm6.26.52a1,1,0,0,0,0-.77l-.05.77Zm.77,0h.09l0-.74Zm.49,0a1.87,1.87,0,0,0,0-.77Zm-2-.13h0l0-.43Zm1.2.09c0-.14,0-.32,0-.43l-.05.43ZM29,32.53v-.16H29Zm-.61,0,.31,0-.22-.09Zm1.26,0c-.11-.07-.25,0-.34-.09v.09C29.47,32.52,29.58,32.62,29.69,32.5Zm9.4-9.28A15.13,15.13,0,0,0,37.62,21a24.22,24.22,0,0,1-1.73,3.49,29.28,29.28,0,0,0,4.19.14,1.48,1.48,0,0,0-.38-.31c-.41,0-1.06.25-1.29-.22,0-.31.4-.4.56-.34l-.18-.31ZM37.37,21.1a.78.78,0,0,0-.61.31c-.22.27-.45.58-.29,1-.14.09-.16.45-.4.25a1.17,1.17,0,0,0-.34.74c.31.18.11.63.16.86.29-.65,1.08-1.38.65-2.16.11-.11.23-.43.43-.25A1.61,1.61,0,0,0,37.37,21.1ZM33.79,24a4.84,4.84,0,0,0-.86-1.37l-.77,1.67c.23,0,.16-.2.29-.34s.31.09.4.18c-.2.07,0,.16,0,.29a1.14,1.14,0,0,1-.56.31c-.11-.05-.25-.16-.25-.31,0,0-.05.05-.05.09a.46.46,0,0,1-.56,0l0,.47c.7,0,1.65.13,2.46.09.16.25.4.07.59.13s.38-.13.4-.34h-.13c-.43.36-.34-.36-.65-.43-.07.09-.05.29-.22.25-.13-.2-.27.2-.43,0C33.07,24.42,33.65,24.21,33.79,24ZM32,24.21a4.61,4.61,0,0,0,.68-1.47c-.41.09-.22.68-.65.83C32.06,23.81,31.72,24,32,24.21Zm8.29,1.11c-1-.32-2.39-.07-3.54-.22-.14.09-.09.29,0,.4s.14-.2.29-.13.11.07.09.13h.13c.16.25.4.05.58.22a.29.29,0,0,1-.14.25l0,0c-.2,0-.14.32-.22.47l.18-.07c.22.34-.09.9.25,1.2a.75.75,0,0,0,.9-.43,4.37,4.37,0,0,0-.13-1.38.42.42,0,0,1,.49-.25c.7.38.23,1.28.43,1.89.38-.49.34.47.81.27v-.14c-.77-.5.27-1.24-.38-1.73C39.74,25.48,40,25.31,40.26,25.32Zm-8,.31c-.23.16-.38-.11-.61-.09s.07.22-.09.31l-.29-.09c0,.2.07.43-.09.58-.22-.13-.25-.4-.43-.58l-3.85,0c0,.18-.23.52.05.68.05.07.14-.07.25,0s-.07.23,0,.4c.23,0,.07-.36.34-.27a.36.36,0,0,1,.43.27.56.56,0,0,0,.56-.27c.22,0,.47-.07.61.09.11-.29.58,0,.86,0s.25-.27.4-.05c.29.05.7.13.93-.13,0,.07.13.13.09.22s-.2.11-.31.18c1,.05,1.87,0,2.89,0,.11.05.27.16.27.31s-.25,0-.27.09c.18,0,.25.16.31.29-.2.22-.5,0-.74-.13-.07-.4-.58-.14-.86-.22.38.27-.14.5-.22.7-.31.23-.29-.25-.34-.36,0,.11-.05.14-.09.22s-.11,0-.13,0c0-.22-.09-.52-.34-.43-.07.25-.41.25-.61.4s.05.43-.16.56-.25.16-.31,0c.2-.36-.09-.61-.13-1-.14,0-.27.23-.4.34A.27.27,0,0,1,30,28c-.79.63-.22-.68-.68-.86-.13,0-.09.09-.14.13-.23.29-.27.68-.56.86-.22-.07-.09-.31-.13-.47-.23-.13-.07-.65-.43-.52a1.57,1.57,0,0,1-.52,1l-.09-.07-.16-1c-.11,0-.14.05-.22.09-.18.22.16.54-.13.68a.14.14,0,0,0-.22,0c.16.31.77.14.59.61.29-.05.77.14.77-.31.09,0,.13.05.18.09,0,.34.38.23.61.25.07-.13.16-.32.34-.34s.07.25.16.34c.27-.07.85.23.74-.29.27-.13.22.2.34.29s.7.11.65-.29a.2.2,0,0,1,.22.07c.07.16-.11.2-.13.31.31,0,.5-.36.86-.25.23-.36.59,0,.92-.18.72-.76,1.8-.27,2.59-.9.45.38,1.37.18,2,.16v0l-.56,0c-.14.09-.18-.2-.31-.05s-.16.07-.25,0a2.27,2.27,0,0,0,0-1.38h-.07c0,.2-.05.36-.05.56-.27,0-.14.45-.47.4.09-.45-.16-.77-.13-1.2-.41.27-.14.76-.22,1.2a.17.17,0,0,1-.22.13.17.17,0,0,1,0-.25c.07-.23.05-.54-.18-.65,0,.32.07.7-.09,1-.32-.13-.07-.63-.22-.92-.27.13.13.54-.13.79-.32-.05-.11-.47-.25-.65S34.2,26,34,26a.43.43,0,0,0,.05.27c-.23.58-.47-.18-.83-.09-.09-.25.13-.41.22-.56-.11-.07-.25,0-.4-.05s-.18.32-.16.52c-.18.13-.25.56-.52.4C32.51,26.17,32.23,26,32.28,25.63Zm-6.38.31c0-.34-.34-.22-.52-.31v.09C25.57,25.74,25.7,26.06,25.9,25.93Zm.56-.22c-.4-.05-.14.34-.22.52h.09C26.56,26.13,26.4,26,26.45,25.72Zm-.52,1c-.11-.34-.45-.56-.68-.77-.14.32.54.14.29.59C25.68,26.53,25.73,26.76,25.93,26.67Zm.9,0c-.11-.11-.4-.43-.5-.13l.16.22C26.62,26.76,26.81,26.87,26.83,26.71Zm12.82,1.2-3,0c0,.09-.16.18,0,.25l.43-.07c.41,0-.09.45.25.59l-.43.31h.61v-.4c.09-.05.14-.23.31-.16.47.2-.23.49-.14.81-.07,0-.14.14-.22,0,0,.13-.13.58.09.74s.74.14,1-.09c.23-.43-.05-.88-.07-1.33.22-.16.38-.63.77-.4,0,.29.27.56-.05.79.43.14.07.67.31.94.52.16.36-.41.56-.5,0-.05-.18-.07-.13-.18s.16-.09.27-.09V29a.17.17,0,0,1-.27,0l.27-.22c-.58-.27-.4.5-.61.68l-.09-.07c-.13-.59.34-.9.7-1.22C40.17,27.68,39.78,28.33,39.65,27.91Zm-4,.43c-.13-.07-.29,0-.43,0,.09.05.18.29.34.22S35.66,28.43,35.64,28.34Zm-.56.14c-.05-.09-.14-.09-.22-.14-.07.14-.34.09-.27.31A2.2,2.2,0,0,1,35.08,28.49Zm3.79.38c0-.09,0-.2,0-.25l-.18.16.13.14A.1.1,0,0,0,38.88,28.87Zm-5.05,0c0-.11-.13-.13-.22-.13v.13c0,.11.16.18.22.13ZM33.3,29c0-.09-.09-.29-.25-.22v.14c.09.07.09.27.25.25Zm-7.59.14L25.59,29c-.72.13-1.8-.32-2.16.38.22.14.23-.22.43-.29.31-.23.45.2.68.29l.22-.25c.23-.23.49.14.65.25Zm.74.38c.07-.2-.27-.29-.34-.38C26.11,29.21,26.26,29.49,26.45,29.51Zm1-.34s0-.05-.07,0c-.54.14-.25.84-.27,1.24.07,0,.18,0,.22,0s.11-.52-.13-.65S27.32,29.19,27.48,29.17Zm1,0c-.22,0-.63-.18-.65,0,.67.25-.18.58,0,1,0,.32.34.41.5.61a1.48,1.48,0,0,0-.13-1.35A.6.6,0,0,1,28.52,29.21Zm4.32,0s-.05-.05-.09,0v.13h.09Zm-3.49,0h-.49C29,29.22,29.42,29.57,29.35,29.17Zm1,.13c0-.11-.23-.2-.25,0l.09.09C30.28,29.37,30.3,29.3,30.37,29.3Zm6.47.7v-.83h-.09a1,1,0,0,0,0,.86S36.81,30,36.85,30Zm-7.37-.09c-.09-.11-.18-.32-.34-.27s-.29.18-.27.4c-.34.34.49.65,0,.77.7.31-.34.79.13,1.29.36.07.34-.4.52-.59a.6.6,0,0,1-.27-.43.94.94,0,0,0,.18-.22C29.28,30.48,29.58,30.32,29.47,29.91Zm1,.47a.71.71,0,0,0-.25-.74c-.2.16-.52.36-.4.7S30.28,30.21,30.5,30.38Zm-7.37-.52v-.13H23C22.89,29.82,23.09,29.82,23.13,29.85Zm3.7-.13v.13h.05v-.13Zm-3.7.34c0-.18-.14,0-.22,0Zm1.51.61c.05-.14-.13-.11-.18-.18s-.07.11,0,.18Zm2.93.09-.13-.09v.18C27.5,30.84,27.57,30.83,27.57,30.77Zm2.59.22c0-.16.32-.09.31-.27S30.16,30.86,30.16,31Zm10.23.16c0-.2-.27-.31-.43-.38-.34.32-.07.88-.22,1.29.32.13.05.38,0,.56s.22.14.31,0a3.3,3.3,0,0,0,.05-1.33C40.19,31.24,40.3,31.2,40.39,31.15Zm-3.88.09c0-.14,0-.29-.13-.38-.07.16.05.29,0,.43Zm-9.58-.09c0-.11,0-.34-.16-.25a.29.29,0,0,0,.13.43C27,31.29,26.9,31.22,26.92,31.15Zm12.57-.07S39.44,31,39.4,31v.13h0S39.49,31.11,39.49,31.08Zm-11.09.29a.41.41,0,0,0-.27-.22,1,1,0,0,0-.29.52,2.75,2.75,0,0,1,.34.56C28.2,31.92,28.4,31.69,28.4,31.36Zm8.15.27c-.49,0,0,.61-.22.86,0,.07.11.2.22.16A2.46,2.46,0,0,0,36.54,31.63ZM14,24.82c-.13-.09-.29,0-.43,0a.1.1,0,0,1,.05.09h.13C13.81,24.93,14,25,14,24.82Zm10.79.77,0-.05c-.14.23-.58.05-.56.36C24.39,26,24.55,25.65,24.76,25.59Zm-1.73,0-3.76,0a.89.89,0,0,0-.43.77c.9-.09,1.22.14,2,0,.11.27-.25.09-.25.25s.11,0,.16.05c.23-.34.72-.23,1-.43l.09.09c0,.23-.29.16-.34.29l0,.05c.27,0,.59.11.65-.27.4-.18.22.45.61.27.07-.09-.27-.16-.14-.31.2.07.41-.13.58-.18.25.2-.11.34-.09.52s.47.09.47-.16C23.47,26.17,23.06,26.13,23,25.63Zm.74.56c0-.14,0-.43-.18-.5l0,.29C23.59,26.06,23.68,26.2,23.77,26.19Zm1-.13V25.9c-.14-.05-.11.11-.16.16Zm.27.49c0-.11.07-.27-.05-.31v.34Zm-.7-.27c-.09.05-.29.2-.31.34a.15.15,0,0,0,.14.05A.41.41,0,0,0,24.33,26.28Zm-4.69.31v.09h.16v-.09Zm5.47,1c-.36,0-.36-.4-.65-.43,0,.14.13.31.14.49s-.14.16-.27.13,0-.09,0-.13c-.18.16-.5-.13-.7-.22v.07c.11.16,0,.45-.16.4l.09.22c-.05.32-.41.09-.58.22v.13a27.66,27.66,0,0,0,4.06.05c-.11-.34-.58,0-.74-.36-.16-.05,0-.22,0-.29l.18.13c.16-.22-.13-.38-.18-.52-.05.25-.32.16-.47.31,0,.11.45.25.16.43s-.27-.13-.29-.27c-.56-.09,0-.4-.22-.65Zm-1.94.27c0-.05,0-.11,0-.14l0,.22ZM20.93,29c-.18,0-.38,0-.52-.05-.09.14.18.27.31.31S21,29.17,20.93,29Zm-1,0h-.47A.25.25,0,0,0,19.89,29ZM22,29h-.68l.29.38c-.45.25,0,1-.34,1.26.23.09.32-.14.49-.25C22.59,30.14,21.31,29.44,22,29Zm.68.16c-.09-.09-.18-.22-.34-.16.05.13.23.27.34.22Zm.09.83c-.22-.18.07-.49-.09-.65a1.27,1.27,0,0,0-.16,1C22.79,30.39,22.73,30.14,22.82,30ZM21,30.34a.8.8,0,0,0-.34-.86c-.4.27-.27.79-.31,1.17.67.43-.38.65.09,1.15.32.18-.11.58.34.61.23.05.45.11.61,0l-.52-.09c-.05-.09-.09-.29.05-.34.09-.31.11-.7-.22-.86-.14-.14,0-.25.13-.27C21.22,30.68,20.63,30.47,21,30.34Zm2.46-.18s0-.09,0-.13v.18Zm.09.34c-.05-.09-.11,0-.18,0l.09.09Zm-.86.4.09-.09c-.18.05-.45-.49-.56,0Zm.4,0c-.05,0-.07,0-.09,0v.25A.24.24,0,0,0,23.09,30.9Zm-5.11-7-.77-1.51c-.16,0-.27.23-.34.38l.22.14a.16.16,0,0,1,0,.25c-.18.09-.22-.16-.36-.18a1.72,1.72,0,0,0-.5.79l.25.16c0,.07,0,.18,0,.22-.13.31-.45.34-.74.31-.27.67-.79-.29-1.2-.18l.56.43c.29,0,.52.56.77.09a16.67,16.67,0,0,0,2.68,0c-.25-.14-.14-.52-.49-.56C17.95,24.08,17.89,24,18,23.87Zm-.22-.77v-.22l-.16-.22Zm.05.07.27.53a.69.69,0,0,0,.11.21l-.11-.21a.3.3,0,0,1,0-.26A1.1,1.1,0,0,0,17.82,23.17Zm.86,1.56c-.16-.11,0-.36-.27-.4l0,.09C18.47,24.5,18.52,24.78,18.69,24.73Zm3.83,7.68c-.11-.16-.34-.05-.5-.09v.09C22.17,32.41,22.37,32.6,22.52,32.41Zm5.27,0c-.07-.09-.31,0-.22.13h.13C27.77,32.52,27.8,32.43,27.78,32.37ZM12.68,21c0-.16-.11-.36-.25-.4-.18.25-.54.52-.52.83l0,0a.25.25,0,0,1,.36.07.42.42,0,0,1-.14.52c-.23.05-.32-.22-.5-.31l-.65.79c-.32.2.07.45-.09.68-.18.07-.27-.11-.34-.18-.07.09-.18.14-.14.27h.36c.27.07.2.38.34.56L10.7,24a.55.55,0,0,0-.43-.14c-.18.07-.4.2-.43.4,1.31.07,2.95,0,4.19,0A19.27,19.27,0,0,1,12.68,21Zm1,.68c-.14-.4-.34-1-.86-1,.18.27,0,1,.56.81.23.09.09.32.13.49-.29.45.18.93.27,1.33.31.11.09.49.34.65.59.2-.23-.23,0-.52a.42.42,0,0,1,.31-.38c-.2-.25-.23-.72-.59-.74A.48.48,0,0,1,13.63,21.65Zm-.34,3.2c-1.06-.18-2.36,0-3.51-.13-.41.32.4.22.43.56a17.65,17.65,0,0,0,.14,1.91c1.28,0,2.45,0,3.7,0V27a.71.71,0,0,1,.47.25c.5,0,1,.47,1.44.31a3.62,3.62,0,0,0,1.46.59c.74,0,1.22.47,2,.31.05-.07,0-.38.25-.31s.11.22.18.31l1.67.05c.07-.13,0-.41.27-.36a.74.74,0,0,1,.22.36c.65.25.47-.45.93-.52-.2-.23,0-.49,0-.77s-.2-.2-.34-.18c.31.32-.23.56-.05.86,0,.13-.14.14-.25.13-.11-.32-.36-.58-.34-.9-.09-.16-.29-.05-.43-.09l.13.22c-.38.16.07.74-.4.77-.18-.13-.18-.34-.16-.56-.34-.07-.18-.52-.56-.47v.25c-.4.18,0,.54-.22.77s-.25-.27-.43-.38c.25-.23-.25-.4-.27-.58-.23.25-.23.67-.34,1a.29.29,0,0,1-.25-.14c.14-.56-.49-.56-.7-.9-.38-.2-.13.36-.47.25s-.05-.27-.18-.38-.18,0-.16,0l.13.09c.14.22-.05.4-.18.56s-.22-.29-.34-.43a1.34,1.34,0,0,0,.22-.25c-.36.09-1-.25-1.08.31-.22,0-.43.2-.61,0l.36-.31c-.11,0-.32.05-.4-.13s.16-.13.25-.18c1,.07,2-.05,3,0-.7-.09.09-.68-.16-1.08h-.05c-.09.11-.22.2-.34.09l.05-.16c-.18-.27-.41.05-.61,0-.11.2,0,.4,0,.59s-.18.31-.38.22-.18-.07-.13-.16c-.32-.22-.23-.54-.18-.79h-.61c0,.16.05.16.14.27a.85.85,0,0,1-.58.56c-.2-.11-.14-.31-.22-.47a1.37,1.37,0,0,0-.5.59c-.05.22.11.52-.14.61a2,2,0,0,1,0-1.08c0-.11.23-.16.09-.27-.31.27-.31.83-.4,1.26-.25-.07-.05-.49-.16-.68s.16-.27,0-.36c-.16.11-.05.36-.27.4-.18-.23,0-.63-.16-.86H14.1v.4c-.31.25,0,.59-.16.86-.05,0-.11,0-.13-.05.07-.25-.13-.2-.31-.25C13.47,25.75,13.62,25.22,13.29,24.86ZM10.06,26.8c-.16-.56.38-1.2-.31-1.42l-.18.43c.07.11.2.09.27.22s.07.56-.22.68c0,.16,0,.34,0,.49C9.93,27.23,9.86,26.87,10.06,26.8Zm6.29,1.69c-.05-.05-.05-.18-.16-.14s-.36.41-.14.61C16.08,28.78,16.33,28.67,16.35,28.49Zm.49,0a.19.19,0,0,0-.22.09c-.09.11-.2.29-.09.38C16.67,28.87,16.92,28.81,16.83,28.52Zm.43.18c-.22-.06-.2.12-.18.25a.12.12,0,0,0,0,.13s0-.07,0-.13S17.33,28.87,17.27,28.7Zm.43.25c0-.05,0-.18-.05-.18s-.23.16-.16.31C17.55,29.06,17.61,29,17.7,29ZM18,29h0v.13C18,29.15,18,29.1,18,29Zm-8.06,1.6c-.05-.29-.47-.23-.58-.05s-.05.31.14.31a7.71,7.71,0,0,0-.05,1.29l.09.13c.11.11.23,0,.31-.09-.43-.34.25-.54.09-.93C9.75,31.06,9.88,30.9,9.93,30.65Zm3.45,0c-.14,0-.13.27-.05.38C13.42,30.93,13.36,30.77,13.38,30.65Zm-3.07.07c0-.07-.11,0-.16,0v.18h0C10.23,30.81,10.36,30.84,10.31,30.72Zm5.27,0c-.2,0-.13.23-.31.31-.47-.16-.29.4-.52.56.43.09.13.77.52.7C15,31.65,15.83,31.27,15.58,30.72Zm1.73.09c-.05-.07-.18,0-.25,0v.09C17.12,30.84,17.25,30.9,17.3,30.81Zm-3.63.43c0-.07,0-.16,0-.22v.27Zm5.18.27c-.13-.18-.23-.38-.47-.4-.31.25.05.56,0,.86C18.65,32,18.74,31.69,18.85,31.51Zm-8.67.07c.25,0,.06-.21,0-.31v0a0,0,0,0,0,0,0Zm3.15-.34c-.16,0-.14.14-.22.22,0,.29-.16.74.13.92C13.17,32,13.53,31.69,13.33,31.24Zm-1.73.61.05-.4h-.09v.4Zm.77-.34h0v.81l.13-.09C12.37,32,12.48,31.72,12.37,31.51Zm-.38.77a1.69,1.69,0,0,0,0-.74c-.23.16-.13.52-.09.74Zm-.83-.05c0-.16,0-.36,0-.5-.16.07-.05.34-.09.5Zm1.6.05,0-.43-.07-.13Zm-2-.18c0-.09.05-.31-.13-.25,0,.14,0,.32.13.38Zm2.21-11.78c.13.13.23-.05.34-.09s.05.32.09.49c.68.93,1,2.1,1.89,2.88a1,1,0,0,0,.13.65A20.49,20.49,0,0,0,17,22c0-.09,0-.23.13-.31a.91.91,0,0,0,.43.61l.22-.09c0,.58.49,1,.52,1.56.13.23.14.47.38.68h.13c0,.14,0,.29.09.4l.18-.18c.05.23-.14.58.25.65,1.51-.07,2.95.2,4.5,0,.09-.11,0-.45.22-.34.07.11.09.23.22.31a.75.75,0,0,0,.68-.47c.29,0,.13.38.43.43.25.22.49,0,.56-.22l.31.38c1.62-.09,2.95.18,4.5.05.54-.2-.38-.77.34-.65a21.25,21.25,0,0,0,1.11-2.21c.29-.07.52-.36.74-.52.43.85,1,1.62,1.56,2.43.27,0,.16-.38.25-.56.85-.54,1-1.46,1.51-2.16a6.3,6.3,0,0,0,.47-1.08c.25.27.43-.13.65-.18s.11-.34.27-.47c.2.18-.07.59.25.72.54,1,1.33,2,1.85,3,.36.29.47.83,1,.92.05.23-.47.4-.13.59-.32.56-.13,1.33-.18,2l.36.31c-.58.4-.36,1.22-.36,1.85a.36.36,0,0,0,.18.38c.18,0,.31-.13.52-.07.31.34.14.93.13,1.37-.05.11.18.36-.09.43h-.09c-.18-.36.23-.86-.34-1l-.13.13c.05.68-.14,1.47.18,2,.18.09.14-.14.22-.22-.18-.29.11-.52.07-.81h.18c.05.25-.05.58,0,.81s0,.41-.16.49L34.9,33c.07-.22,0-.72.31-.77,0,.11-.07.29.09.34s.11-.11.16-.16c-.36-.47.83-.94-.07-1.13v-.16c.14-.14.34.29.47-.05s-.4-.11-.31-.43c.18,0,.47.11.52-.13s-.4-.13-.56-.13-.58.74-.52,0a2.9,2.9,0,0,1,1.08-.27c.7-.61,0-1.38.22-2.16a.28.28,0,0,0-.4,0l-.07,1.22c-.14.05-.43-.14-.43.16-.09,0-.13-.09-.18-.13-.07.16-.23.05-.34.09s-.05.38-.27.38a.9.9,0,0,0-.25-.81c-.2.14,0,.32,0,.47l-.43.43c-.11-.07,0-.29-.22-.31,0,.31-.29.38-.25.7-.09,0-.16-.07-.18-.13s.27-.4,0-.52c-.16.11-.22.45-.34.59-.16-.11.18-.5-.18-.5-.18.05,0,.4-.25.29-.05-.05-.09-.16-.18-.16l-.25.56c-.23-.14.11-.38-.13-.52-.11.05-.27.16-.27.31l.05,0-.09.09a1.14,1.14,0,0,0-.31-.65c-.31.18-.07.67-.4.86.32.07.22.9.61.49l0-.49c.11,0,.2.11.22.18s-.23.36.05.47.63-.52,1.08-.31l0-.29c.09,0,.13,0,.18.07-.11.43,0,1-.13,1.35.13.07.07.43.29.25.31-.34-.23-.83.14-1.2.13-.05.22.09.25.18-.13.31-.32.83,0,1.11a.36.36,0,0,1-.22.43c.09.09.23.18.34.09.29-.32,0-.72.09-1.13-.22-.27.27-.76-.25-.81-.07-.07-.18-.14-.14-.27s.09,0,.14,0a.37.37,0,0,0,.34.25c.13-.05.09-.25.25-.22a.93.93,0,0,0,.83.4.91.91,0,0,1-.13.56c-.07-.25-.29-.11-.49-.22s-.2.05-.31.09c.13.32.49.72.22,1,0,.11.05.16.09.25.25,0,.2-.27.27-.43h.07c.09.23-.11.5-.29.65-.32.36-.76,0-1.17.13l-.13-.13c.13-.2.4-.25.16-.52-.13.25-.54.23-.74.05,0-.11.05-.25.18-.27.05-.29.11-.72-.22-.86-.16.22-.47.22-.56.49-.22-.13.05-.56-.31-.49a3.34,3.34,0,0,0-.09,1.13c-.41-.23-1.31.54-1.24-.36.05,0,.07-.05.13-.07a6.79,6.79,0,0,0-.22-.65c-.16,0-.23.16-.34.25,0,.34.4.68.07,1a4.21,4.21,0,0,1,1.6.27,2.13,2.13,0,0,1-1,.13l-4.28-.09c-.23-.29-.79,0-1.08-.25a.62.62,0,0,1-.61.07l-.22-.22c-.27.59-.83-.05-1.2.4-1.83-.11-3.42,0-5.12-.13.27-.49.86-.18,1.37-.27.09-.4.76-.88.14-1.24,0-.23.25-.47,0-.7a.63.63,0,0,0,.4-.38c0-.31-.29-.56-.49-.7-.29.14-.14.56-.31.79l.14.13s0-.05.07-.05l.05.05-.27.34c.58.43-.4.9.18,1.29.07.25-.22.16-.31.31-.23-.05-.54.11-.68-.13-.2-.07-.29.25-.4,0-.09-.41.4-.92-.13-1.13-.2.11.05.43-.22.49a1.34,1.34,0,0,0-.56-.49c-.22.11-.14.32-.22.49-.29.07-.27-.65-.52-.22a.39.39,0,0,1-.09.34c.07-.34-.52-.81,0-1,.16.05,0,.36.22.31.41-.23-.09-.61.27-.77.09.11-.05.47.25.34.11-.07,0-.31.18-.27-.16.29.5.29.07.52.22.45.36-.4.58.05.11,0,.23,0,.25-.14s-.23-.47,0-.59l0-.05c.22.31-.13.88.49.83-.14-.52.52-.63.31-1.11l-.22.16c-.14-.18.11-.65-.31-.56-.18.11-.11.41-.31.43,0-.11-.07-.27-.22-.31s0,.45-.31.31c-.09-.11,0-.29-.09-.4l-.29.18L17,29.35l-.14.29c-.16,0-.23-.25-.25-.43-.09,0-.14.13-.22.18s.13.32,0,.43h-.05c.05-.27-.23-.52-.25-.83-.13.09-.13.29-.18.43L15.45,29c.13-.18.36-.4.38-.65s-.25-.07-.38,0a1.19,1.19,0,0,0-1.13-.43.6.6,0,0,0-.13.47c.36-.18.61.05,1,.09l.22,0c.07.36-.31.56-.13.92,0,.07-.11,0-.16,0L15,28.92l-.22.07-.13-.22a.42.42,0,0,0-.09.18c-.22,0-.09-.25-.29-.25s0,.38-.22.34c-.14-.36.22-.77-.05-1.08,0-.16,0-.4-.16-.43s-.25,0-.27.13l0,1.64c-.22-.49.09-1.26-.27-1.73-1.17-.09-2.46,0-3.58-.09-.13.07-.07.2-.09.31.31.05.45.41.65.52a3.69,3.69,0,0,1,0,.9c-.36-.25.18-.72-.31-.9-.29.29,0,.67-.09,1,.09.25.38,0,.52.16.16-.09,0-.4.31-.34.05,0,.14,0,.18,0s-.59-.14-.36-.49a.48.48,0,0,1,.49-.09c.22.31-.18.68.09,1a6.28,6.28,0,0,0,1.2.16c.56-.23-.23-1.33.65-1a1.61,1.61,0,0,0,.22,1.12c.27.07.36-.27.43-.38a.45.45,0,0,0,.25.34l.34,0c0,.27-.54,0-.43.4.18.09.54,0,.52.25-.13.09-.45,0-.38.27.43.18.07.7.47.9.11.25-.23.59.13.65.32-.45.13-1,.13-1.51-.22-.14.07-.29.09-.43.05.25.34.16.49.31.14-.2.59-.25.5-.56.14.05.11.18.05.31s0,.09,0,.13l.27-.09c-.31.27.23.67-.14,1,.18.43-.36.83.14,1.11.14.2.47-.2.47.18-.27.2-.59,0-.86,0l-7.16-.09a4,4,0,0,1-.05-.93c.59-.25,0,1.1.61.47a17,17,0,0,0,0-1.91c-.23-.32-.43.47-.65,0,.05-.16-.13-.49.18-.47.07,0,0-.11,0-.18s-.25-.05-.22-.22c.43-.13,1.13.18.92-.59-.11-.61.25-1.26-.31-1.64.68-.47.32-1.67.31-2.34,0-.09.11-.14.07-.25s-.25-.2-.25-.36l.34-.16L12.37,20l.05-.31C12.59,19.84,12.61,20.23,12.95,20.32Z"/><path class="cls-1" d="M38,21.92v.25c-.16.05-.45.11-.56-.09s.13-.22.25-.29S38,21.76,38,21.92Z"/><path class="cls-1" d="M13.17,22.95c-.31.29.4,1-.4,1-.27-.4-.72.32-.77-.34.2-.32.61-.27,1-.34-.05-.16-.22-.22-.36-.27l-.13.14,0-.05a.37.37,0,0,1,.59-.16C13.08,22.9,13.09,23,13.17,22.95Z"/><path class="cls-1" d="M33.14,23.22l-.09.09,0-.22C33.12,23,33.09,23.17,33.14,23.22Z"/><path class="cls-1" d="M37.4,23.31c-.09.11-.31.11-.29.29s.54,0,.47.36c.16.34-.25.2-.4.29-.23-.29-.59.31-.77-.22-.07-.29.27-.29.43-.38s-.05-.13,0-.22S37.24,23,37.4,23.31Z"/><path class="cls-1" d="M17.7,23.87c-.07.16-.22.31-.05.47-.11.09-.29,0-.43.05-.32-.2.05-.41.18-.58C17.48,23.83,17.62,23.79,17.7,23.87Z"/><path class="cls-1" d="M11.26,25.29v.13c-.14,0-.18-.16-.31-.16C11,25.09,11.19,25.2,11.26,25.29Z"/><path class="cls-1" d="M13.11,25.29c0,.09,0,.13-.09.18s-.25-.05-.29-.18C12.86,25.29,13,25.09,13.11,25.29Z"/><path class="cls-1" d="M12.34,25.59c.13.14-.07.47.18.52-.05-.43.2-.38.5-.43h.05V27c-.27.05-.74-.14-1,.16L11.94,27c.56-.22.22-1,.31-1.46-.14,0-.16-.22-.09-.31S12.16,25.57,12.34,25.59Z"/><path class="cls-1" d="M11,25.54A10,10,0,0,0,11,27H10.4a5.29,5.29,0,0,1,.09-1.44l.13.14C10.74,25.65,10.85,25.39,11,25.54Z"/><path class="cls-1" d="M39.74,25.93c0,.09,0,.2,0,.25S39.56,25.88,39.74,25.93Z"/><path class="cls-1" d="M18.2,26.15c0,.16-.09.29-.22.22l.09-.25Z"/><path class="cls-1" d="M14.53,26.58l0,0a.21.21,0,0,1-.09-.38A.3.3,0,0,1,14.53,26.58Z"/><path class="cls-1" d="M32.15,26.58l-.05.13c-.11,0-.27-.07-.31-.22l.09-.13C32,26.4,32.06,26.51,32.15,26.58Z"/><polygon class="cls-1" points="28.13 26.4 28.21 26.4 28.21 26.58 28.13 26.58 28.13 26.4 28.13 26.4"/><path class="cls-1" d="M13.54,26.92c0,.05,0,.14,0,.18s-.14,0-.18-.05S13.45,26.8,13.54,26.92Z"/><path class="cls-1" d="M11.51,27v.09H11.3A.13.13,0,0,1,11.51,27Z"/><path class="cls-1" d="M11.13,27.88a.44.44,0,0,1-.52.25l-.09-.07.4-.14a.32.32,0,0,0-.34-.13C10.68,27.62,11,27.71,11.13,27.88Z"/><path class="cls-1" d="M13.11,28.06l.13.13c-.11.09-.25.32-.47.31,0-.05-.13-.11-.13-.18.31-.11,0-.29-.05-.43l-.16-.09c.11-.2.36.13.56,0A.26.26,0,0,1,13.11,28.06Z"/><path class="cls-1" d="M24.21,28.09H24a.24.24,0,0,1,.16-.31h.09Z"/><path class="cls-1" d="M12.25,28.87l-.09.09c-.07-.25,0-.56-.25-.74,0-.09.18-.18.25-.09S12.23,28.63,12.25,28.87Z"/><path class="cls-1" d="M18.72,28.13c0,.07,0,.14,0,.18h-.05v-.18Z"/><path class="cls-1" d="M20.84,28.31c0,.13-.09.09-.13.13s-.23-.22-.05-.31S20.81,28.2,20.84,28.31Z"/><path class="cls-1" d="M25.25,28.18v.09c-.13,0-.25,0-.27-.14C25.07,28.15,25.18,28.11,25.25,28.18Z"/><path class="cls-1" d="M10.83,28.31c0,.05,0,.11,0,.13H10.7v-.16S10.79,28.25,10.83,28.31Z"/><path class="cls-1" d="M3.74,29.21c0-.31-.56-.18-.43.14.07.13.2.05.31.07S3.8,29.33,3.74,29.21Zm.52.4c0-.23-.45-.23-.43,0,0,.09.13.23.27.18S4.34,29.76,4.27,29.6Zm-1,.34c.14-.25-.27-.49-.38-.22,0,.11,0,.22.09.27S3.22,30,3.31,29.94Zm.58.22c0-.27-.47-.18-.4.09a.27.27,0,0,0,.31.13A.24.24,0,0,0,3.89,30.16Zm.43-.9a.62.62,0,0,1,.16.56c-.54.13-.29,1.08-1,.74-.18-.43-.77-.2-.77-.7s.49-.45.43-.86a.52.52,0,0,1,.59-.13A.74.74,0,0,0,4.32,29.26Z"/><path class="cls-1" d="M35.86,29.48c0,.05-.09,0-.13,0V29.3C35.84,29.3,35.82,29.42,35.86,29.48Z"/><path class="cls-1" d="M46.09,30.16c0-.2-.49-.18-.4.09,0,.11.09.14.22.13S46.14,30.32,46.09,30.16Zm.86.27a.2.2,0,0,0-.22-.14.26.26,0,0,0-.18.31.18.18,0,0,0,.22.09C46.92,30.7,47,30.54,47,30.43Zm-.61.34c.07-.18-.13-.2-.22-.22s-.18.09-.18.22.14.2.27.22S46.38,30.88,46.34,30.77Zm.31-1a.22.22,0,0,0-.4.18c.07.07.14.16.27.13A.34.34,0,0,0,46.65,29.82Zm.56.61c-.05.18-.09.4-.31.47-.38,0-.85.67-1.11,0,.22-.43-.79-.85,0-1.15.36,0,.63-.58,1-.18C46.92,29.87,46.92,30.21,47.2,30.43Z"/><path class="cls-1" d="M14.53,30c.05.13-.07.09-.13.13s-.09-.05-.13-.09S14.48,30,14.53,30Z"/><path class="cls-1" d="M14.84,30.07c0,.07,0,.14,0,.18h-.05V30C14.8,30,14.82,30.05,14.84,30.07Z"/><path class="cls-1" d="M15.27,30.16c0,.07-.05.09-.09.13s-.18-.14-.07-.22S15.22,30.12,15.27,30.16Z"/><polygon class="cls-1" points="16.19 30.21 16.26 30.21 16.26 30.47 16.19 30.47 16.19 30.21 16.19 30.21"/><path class="cls-1" d="M34.69,30.5l0,.05v-.22C34.72,30.36,34.67,30.45,34.69,30.5Z"/><path class="cls-1" d="M32.66,30.47v.09h-.13C32.48,30.47,32.62,30.36,32.66,30.47Z"/><path class="cls-1" d="M8.67,30.65c0,.14-.16,0-.22.13s-.13-.16,0-.22S8.62,30.54,8.67,30.65Z"/><path class="cls-1" d="M14.41,30.86c0,.07,0,.11-.09.16l-.13-.09C14.21,30.84,14.33,30.75,14.41,30.86Z"/><path class="cls-1" d="M8.63,31c0,.07,0,.14-.09.13s-.14,0-.18,0l.09-.22C8.53,30.9,8.56,31,8.63,31Z"/><path class="cls-1" d="M8.63,31.36c0,.11-.13.14-.18.22-.05-.09-.14-.2,0-.29A.2.2,0,0,1,8.63,31.36Z"/><path class="cls-1" d="M17.12,32.16c-.18,0-.43.31-.59,0l-.13-.13c-.09.07-.16.34-.36.22s0-.23,0-.34c.27-.49.56.43.74-.18l.09-.18C16.83,31.81,17.07,31.94,17.12,32.16Z"/><path class="cls-1" d="M17.73,31.89c.11.14,0,.29-.09.4a.18.18,0,0,1-.22-.13C17.45,32,17.57,31.83,17.73,31.89Z"/><path class="cls-1" d="M32.41,32.28a.22.22,0,0,1-.34.13c-.05-.09-.18-.23,0-.31S32.37,32.12,32.41,32.28Z"/><path class="cls-1" d="M17.95,32.5a.48.48,0,0,1-.31.34c-.23-.11-.67.05-.77-.22C17.14,32.37,17.61,32.44,17.95,32.5Z"/><path class="cls-1" d="M32.93,32.75a.18.18,0,0,1-.13.22c-.36,0-.79.09-1-.25.07-.29.38,0,.59-.09Z"/><path class="cls-1" d="M37.55,34.69c-.79-.31-1.58-1-2.55-.68-.27.16-.68.47-.56.81.34.2.59-.4,1-.47a1.74,1.74,0,0,1,1.24,0C37,34.42,37.19,34.85,37.55,34.69Zm-.18.31c-.63-.18-1.44-.79-2-.13-.23.09-.09.32,0,.43A5.65,5.65,0,0,1,37.37,35Zm-2.12.65-.65-.47c-.29,0-.61-.49-.81-.05.63-.13,1,.41,1.46.7Zm-.59.22c-.13-.4-.7-.2-.86.13a.71.71,0,0,0,.13.86C34.17,36.6,34.65,36.24,34.65,35.86Zm-.86,1.64c-.2-.32-.13-.92-.56-1a2.07,2.07,0,0,0,.25,1.26C33.74,37.87,33.65,37.59,33.79,37.5Zm-.7.74c0-.13-.07-.34-.22-.34l.09.38C33,38.27,33.07,38.29,33.09,38.23Zm-.29.34c-.16-.09-.14-.85-.36-.25.14.18.05.65.36.56Zm5.86-4.26.09.07c-.2.27-.58.27-.7.52a1.23,1.23,0,0,0,1.17,0l.13,0c-.23.38-.83.31-1.2.56.13.36.63.38.74.65-1.13-.22-2.68-1.1-3.7.05-.56,0-.81.7-1.13,1.08,0,.72-1.13,1.1-1,1.85.7-.56,1.2-1.35,1.94-1.85.09.11,0,.31.16.38.61-.34,1.17-.81,1.78-1.15L34.65,38.7c-.14-.07-.05-.36-.31-.29-.2.38-.81.4-.68.86a.29.29,0,0,0,.38.22c.72-.22,1.35-.61,2.07-.83a.31.31,0,0,1-.38.25c-.85.43-1.58.86-2.43,1.29-.58-.22-1.06.36-1.58.52.27-.47.7-.86,1-1.33l-.09-.09c-.41.27-.77.86-1.17,1.17.14-.86.77-1.44.77-2.28.11-.18.18-.43.4-.49.58-.47,0-1.46.83-1.76.56-.38-.22-.83.25-1.17-.09-.4.27-.7.56-.86.5-.07.94-.47,1.51-.25C36.74,33.88,37.62,34.65,38.66,34.31Z"/><path class="cls-1" d="M32.23,36c.14.25.41-.14.49.18-.18.77-.58,1.44-.77,2.19a7.32,7.32,0,0,1-.74,1.94h-.09V39.13L30.86,39c0-1,0-2.09,0-3.11.18.4,0,1,.13,1.47s.11.81.56.86c.22-.27.11-.68.27-1L31.58,37l.74-3h.09Z"/><path class="cls-1" d="M13.81,34.31a.17.17,0,0,1-.05-.27C13.85,34.06,13.8,34.22,13.81,34.31Z"/><path class="cls-1" d="M19.06,40l0,0c-.22,0-.47.36-.65.09,0-.11.14-.25.22-.4a.22.22,0,0,0-.13-.34c.07-.49-.45-.09-.61-.31a2.9,2.9,0,0,1,.77-1.64c.32-.36-.25-.61,0-1,.14-.67-.36-1.24-.68-1.69a2.48,2.48,0,0,0-2.41-.38,2.15,2.15,0,0,0-1.26,2c.2.36.18.92.61,1.12-.27.72-.76,0-1.13.09a.29.29,0,0,1-.13-.49l-.22.05c-.09-.05-.29-.14-.22-.31s.2-.2.34-.22c-.18-.16-.22-.67-.56-.47a.4.4,0,0,0-.18-.43c-.31-.74.58-.41.83-.7,0-.22.29-.38.18-.59l-.4.38a.22.22,0,0,1-.31-.09c.05-.11.16-.07.27-.07a.33.33,0,0,0,.13-.43c-.34.32-.43-.34-.77-.14,0,.2.16.32.16.52-.27.2-.38-.4-.65-.38-.07.16.16.31,0,.43a.56.56,0,0,1-.43-.61.32.32,0,0,0-.4.09c0,.05,0,.13.09.13a1.18,1.18,0,0,1,.52.83c.72.31-.18,1.24.59,1.42a6.15,6.15,0,0,0,1.08,1.64c.9.47,1.13,1.37,2.21,1.38.81.45,1.6-.13,2.41-.18.09.09.25.22.13.34l-.25-.07v.47c.13.18.34.49.61.31C18.88,40.37,19.19,40.23,19.06,40Zm-6.38-3.72c-.05,0-.11,0-.13,0s.14-.25.22-.25S12.82,36.27,12.68,36.33Zm1.85,2.09c-.43,0-.74-.35-1-.68a.9.9,0,0,1-.17-.18l.17.18a6.09,6.09,0,0,0,1,.46Zm3.38-.79-.05-.56c.2,0,.14.22.27.31C18.06,37.46,18.07,37.66,17.91,37.62Zm-.09-2c.36-.07.43.34.65.52l-.09.65a1.75,1.75,0,0,1-.86-.86c.2,0,.31.54.52.09S17.57,36,17.82,35.64ZM17.7,37c-.13,0-.2-.11-.22-.18-.16-.31.38-.29.25,0C17.71,36.9,17.77,37,17.7,37Zm-.4,0c0,.16-.09.29-.25.25a.35.35,0,0,1-.36-.25A.33.33,0,0,1,17.3,37Zm-.4-1c.16.13.54,0,.52.29a.62.62,0,0,1-.65.27C16.53,36.38,16.89,36.24,16.91,36Zm.52,1.46h.13v.22a1,1,0,0,0-.5.13C16.89,37.41,17.27,37.71,17.43,37.5Zm-2.89-1.08c.31-.27.11-.83.58-1,0,.18.07.41-.09.52.09.16.36,0,.38.27s0,.49-.25.43Zm.22,2c-.11-.18,0-.52.27-.43C14.77,38.11,15.16,38.45,14.75,38.41Zm0-1.26v-.34c.25.34,1-.2.79.52-.13.31-.41.09-.52,0S14.78,37.24,14.75,37.15Zm.4.74,0-.13c.05,0,.14,0,.14.07S15.2,37.87,15.14,37.89Zm.43,1c-.16,0-.2-.29-.31-.43l.22-.25C15.58,38.43,16.06,38.79,15.58,38.92Zm.52-1.15a.35.35,0,0,1-.43.07.3.3,0,0,1,0-.38C15.88,37.15,16.17,37.53,16.1,37.77Zm-.18-1.26c.09,0,.13,0,.18.09l-.09.09Zm-.16-.4a.87.87,0,0,1-.43-.29.61.61,0,0,1,.34-.74c.34-.14.29.22.47.34C15.65,35.46,16.24,36,15.75,36.11ZM16.13,35c0-.23-.31-.32-.52-.34l-.13,0c.16-.11.59-.41.92-.16,0,.36.34,0,.47.22l.22-.09c.11.2-.22.36-.34.47S16.38,34.65,16.13,35Zm.09.56c.38-.18.79-.13,1.11-.52.18,0,.47,0,.36.27,0,.13-.05.13-.14.16s-.18.38-.47.4a.6.6,0,0,0-.22-.31c-.36,0-.13.68-.61.43C16.26,35.84,16.11,35.7,16.22,35.55Zm.47,2.34c-.25.09-.31-.22-.38-.34a.26.26,0,0,1,.16-.31c.14.05.34.11.36.31A.36.36,0,0,1,16.69,37.89Zm.61.74c-.23.05-.2-.23-.43-.18l.09-.22c.11.11.29.14.34.31Zm.31,0c0-.32-.58-.4-.34-.65s.43.16.5.34C17.66,38.4,17.84,38.66,17.61,38.63Z"/><path class="cls-1" d="M14.15,37.37c-.14.05-.36-.16-.31-.31C13.94,37.21,14.23,37.12,14.15,37.37Z"/><path class="cls-1" d="M23.9,39.62s0,.05,0,.09l-.09-.09Z"/><path class="cls-1" d="M17.52,44.92c-.05-.27-.41-.07-.34.13s.13.14.22.13S17.54,45,17.52,44.92Zm-.61.25c-.09-.25-.47-.09-.38.18l.25,0A.16.16,0,0,0,16.91,45.17Zm.92.43c0-.29-.52-.2-.4.09a.18.18,0,0,0,.22.09C17.73,45.78,17.77,45.68,17.82,45.6Zm-.65.22c0-.27-.45-.18-.4.09s.14.14.27.13S17.21,45.95,17.18,45.82Zm.56-1.08c-.2.49.54.63.25,1.08-.22.29-.59.16-.81.43a.46.46,0,0,1-.61-.22c.16-.47-.81-1.06.09-1.24C17,45,17.39,44.15,17.73,44.74Z"/><path class="cls-1" d="M32.75,45c0-.13-.14-.13-.22-.18s-.14.18-.13.31a.24.24,0,0,0,.22.09C32.76,45.23,32.66,45.07,32.75,45Zm.61.34c.11-.23-.27-.29-.34-.13s0,.16,0,.22S33.29,45.46,33.36,45.35Zm-.86.25c-.05-.09-.14-.23-.27-.22s-.23.16-.16.31.16.09.25.13S32.44,45.68,32.49,45.6Zm.56.22a.2.2,0,0,0-.22-.07c-.05.09-.18.05-.13.22s.13.13.22.13S33.07,45.95,33.05,45.82Zm.43-.81c.14.11.09.38,0,.52-.41.14,0,.68-.5.77s-.54-.36-1-.31a.5.5,0,0,1-.22-.52c.54-.2.13-1,.86-.9C32.91,44.87,33.21,44.89,33.48,45Z"/><path class="cls-1" d="M3.28,23.61l1,.07a1.08,1.08,0,0,0,.36,0,.25.25,0,0,0,.13-.11.81.81,0,0,0,.07-.32h.09L4.75,25H4.67a.79.79,0,0,0,0-.33.26.26,0,0,0-.11-.13,1.07,1.07,0,0,0-.35-.06l-2.24-.16a1.09,1.09,0,0,0-.36,0,.25.25,0,0,0-.13.11.81.81,0,0,0-.07.32H1.31l.1-1.5a1.69,1.69,0,0,1,.34-1,.82.82,0,0,1,.68-.28.85.85,0,0,1,.56.25,1.07,1.07,0,0,1,.29.6A4,4,0,0,1,3.28,23.61Zm-1.69-.12,1.49.1c0-.06,0-.1,0-.13A.62.62,0,0,0,2.95,23a.83.83,0,0,0-.56-.21.8.8,0,0,0-.57.13.66.66,0,0,0-.21.49Z"/><path class="cls-1" d="M2,19.26a1.71,1.71,0,0,1,2.16-1.38,1.84,1.84,0,0,1,1,.65,1.71,1.71,0,0,1,.29,1.56,1.75,1.75,0,0,1-1,1.25,1.82,1.82,0,0,1-1.25.1,1.72,1.72,0,0,1-1.12-.82A1.67,1.67,0,0,1,2,19.26Zm.16,0a.78.78,0,0,0,.29.82,2.57,2.57,0,0,0,1.06.47,2.2,2.2,0,0,0,1.34,0,.71.71,0,0,0,.43-.52.73.73,0,0,0,0-.46,1,1,0,0,0-.42-.47A2.88,2.88,0,0,0,4,18.78a3.08,3.08,0,0,0-1-.12,1,1,0,0,0-.54.2A.77.77,0,0,0,2.14,19.27Z"/><path class="cls-1" d="M6.15,14.91l1,.63L5.9,18.31l-.08,0,0-.1a.47.47,0,0,0,.05-.24.23.23,0,0,0-.07-.14,1.07,1.07,0,0,0-.28-.16l-2.07-1a1.16,1.16,0,0,0-.31-.12A.26.26,0,0,0,3,16.6a.45.45,0,0,0-.14.19l0,.1-.08,0,.78-1.67.08,0-.06.14a.48.48,0,0,0-.05.24.25.25,0,0,0,.07.15,1.07,1.07,0,0,0,.28.16l2,.93a1.13,1.13,0,0,0,.32.12.2.2,0,0,0,.15-.06,1.2,1.2,0,0,0,.15-.27l.12-.26a1,1,0,0,0,.11-.45.85.85,0,0,0-.14-.41A2.47,2.47,0,0,0,6.1,15Z"/><path class="cls-1" d="M8.2,13.59l.08,0-1,1.53-.08,0,.06-.1a.47.47,0,0,0,.08-.23.23.23,0,0,0-.05-.15,1.06,1.06,0,0,0-.26-.2L5.14,13.23a1.16,1.16,0,0,0-.3-.15.26.26,0,0,0-.16,0,.45.45,0,0,0-.16.17l-.06.1-.08,0,1-1.53.08,0-.06.1a.47.47,0,0,0-.08.23.25.25,0,0,0,0,.15,1.08,1.08,0,0,0,.26.19l1.93,1.21a1.12,1.12,0,0,0,.3.15.26.26,0,0,0,.16,0,.45.45,0,0,0,.16-.17Z"/><path class="cls-1" d="M7.58,8.92l.73.59-.06.07a1.47,1.47,0,0,0-.47-.15.7.7,0,0,0-.35.07.87.87,0,0,0-.25.23L7,9.93l2.07,1.68a1.12,1.12,0,0,0,.28.19.26.26,0,0,0,.16,0,.45.45,0,0,0,.18-.15l.07-.09.07.06L8.73,13l-.07-.06.07-.09a.47.47,0,0,0,.11-.22.24.24,0,0,0,0-.16,1.08,1.08,0,0,0-.23-.23L6.5,10.58l-.16.19a.72.72,0,0,0-.2.48,1,1,0,0,0,.28.59l-.06.08-.73-.59Z"/><path class="cls-1" d="M9.22,7.65l.92,1.06.05,0a.55.55,0,0,0,.23-.47,1.26,1.26,0,0,0-.26-.58l.07-.06,1.19,1.37L11.35,9a1.35,1.35,0,0,0-.42-.28.56.56,0,0,0-.34,0,.87.87,0,0,0-.33.2l.64.73a1.4,1.4,0,0,0,.25.25.21.21,0,0,0,.14,0,.42.42,0,0,0,.19-.11l.16-.14a1.24,1.24,0,0,0,.44-.68,1.24,1.24,0,0,0-.13-.79L12,8.09l.6.93-2.25,2-.06-.07.09-.07a.47.47,0,0,0,.15-.2.23.23,0,0,0,0-.16,1.07,1.07,0,0,0-.19-.26L8.85,8.49a1.84,1.84,0,0,0-.2-.21.25.25,0,0,0-.16,0,.43.43,0,0,0-.25.12l-.09.07L8.1,8.36l2.18-1.89.67.77-.07.07A1.25,1.25,0,0,0,10.36,7a.77.77,0,0,0-.44.07,2,2,0,0,0-.43.31Z"/><path class="cls-1" d="M13.71,4.07l.64,1-.08.05a1.29,1.29,0,0,0-.74-.39,1.06,1.06,0,0,0-.72.15,1,1,0,0,0-.4.47,1.08,1.08,0,0,0-.08.62,2.21,2.21,0,0,0,.32.81,2.88,2.88,0,0,0,.55.66,1.13,1.13,0,0,0,.62.3,1,1,0,0,0,.65-.18,1.25,1.25,0,0,0,.43-.44,2.06,2.06,0,0,0,.22-.72l.16.25a1.88,1.88,0,0,1-.28.69,1.83,1.83,0,0,1-.55.5,2.1,2.1,0,0,1-.95.33,1.56,1.56,0,0,1-.9-.19,1.78,1.78,0,0,1-.67-.63,1.89,1.89,0,0,1-.05-1.88,1.88,1.88,0,0,1,.66-.7,2.11,2.11,0,0,1,.73-.27,1.18,1.18,0,0,0,.3-.08.19.19,0,0,0,.09-.13.33.33,0,0,0,0-.2Z"/><path class="cls-1" d="M15.6,3.19,18,4.54l-.56-1.38a.71.71,0,0,0-.24-.36.49.49,0,0,0-.44,0l0-.08,1.06-.43,0,.08a.86.86,0,0,0-.25.18.29.29,0,0,0-.05.18,1,1,0,0,0,.09.34l1.08,2.67-.08,0L15.35,4l.83,2q.11.28.28.32a.5.5,0,0,0,.33,0l.08,0,0,.08-1.14.46,0-.08A.55.55,0,0,0,16,6.52a.55.55,0,0,0,0-.41l-.92-2.27L15,3.79a.68.68,0,0,0-.25-.1.57.57,0,0,0-.24,0l0-.08Z"/><path class="cls-1" d="M20.91,5.07l0,.09-1.75.4,0-.09.11,0a.47.47,0,0,0,.22-.11.23.23,0,0,0,.07-.14,1.07,1.07,0,0,0,0-.32L19,2.65a1.16,1.16,0,0,0-.1-.32.26.26,0,0,0-.14-.09.45.45,0,0,0-.24,0l-.11,0,0-.09,1.75-.4,0,.09-.11,0a.47.47,0,0,0-.22.11.24.24,0,0,0-.07.14,1.08,1.08,0,0,0,0,.32l.51,2.22a1.11,1.11,0,0,0,.1.32.26.26,0,0,0,.14.09.45.45,0,0,0,.23,0Z"/><path class="cls-1" d="M23.94,1.19l.13,1.19H24a1.29,1.29,0,0,0-.49-.68,1.06,1.06,0,0,0-.71-.18,1,1,0,0,0-.57.25,1.09,1.09,0,0,0-.34.53,2.22,2.22,0,0,0-.07.87A2.88,2.88,0,0,0,22,4a1.13,1.13,0,0,0,.42.54,1,1,0,0,0,.66.13,1.26,1.26,0,0,0,.58-.2,2.06,2.06,0,0,0,.52-.55l0,.3a1.88,1.88,0,0,1-.55.5,1.83,1.83,0,0,1-.72.21,2.1,2.1,0,0,1-1-.12,1.57,1.57,0,0,1-.72-.56,1.78,1.78,0,0,1-.32-.86,1.84,1.84,0,0,1,.16-1,1.82,1.82,0,0,1,.62-.76,1.88,1.88,0,0,1,.9-.34,2.11,2.11,0,0,1,.78.08,1.18,1.18,0,0,0,.31.06.19.19,0,0,0,.13-.07.33.33,0,0,0,.06-.2Z"/><path class="cls-1" d="M26.73,1.33a1.71,1.71,0,0,1,1.73,1.89A1.84,1.84,0,0,1,28,4.34a1.71,1.71,0,0,1-1.48.56,1.75,1.75,0,0,1-1.4-.73A1.83,1.83,0,0,1,24.8,3a1.72,1.72,0,0,1,.61-1.24A1.67,1.67,0,0,1,26.73,1.33Zm0,.16a.78.78,0,0,0-.76.43A2.57,2.57,0,0,0,25.71,3a2.2,2.2,0,0,0,.22,1.32.71.71,0,0,0,.59.34.73.73,0,0,0,.45-.1,1,1,0,0,0,.39-.49,2.87,2.87,0,0,0,.19-.92,3.08,3.08,0,0,0-.06-1,1,1,0,0,0-.29-.5A.77.77,0,0,0,26.75,1.49Z"/><path class="cls-1" d="M29.52,5.19l0-.08.11,0a.45.45,0,0,0,.23,0A.29.29,0,0,0,30,5.08a1.24,1.24,0,0,0,.12-.3l.7-2.17a1.15,1.15,0,0,0,.08-.33.25.25,0,0,0-.07-.15.45.45,0,0,0-.2-.12l-.11,0,0-.08,1.47.48a2.47,2.47,0,0,1,.89.47,1.47,1.47,0,0,1,.47.81,1.88,1.88,0,0,1-.07,1,1.87,1.87,0,0,1-.32.6,1.54,1.54,0,0,1-.45.39,1.48,1.48,0,0,1-.51.17,2.29,2.29,0,0,1-.62,0A2.78,2.78,0,0,1,31,5.67Zm2.26-2.7-.83,2.56a1,1,0,0,0-.06.26.15.15,0,0,0,0,.09.42.42,0,0,0,.18.1.77.77,0,0,0,.71-.07,2,2,0,0,0,.67-1.06,2.29,2.29,0,0,0,.13-1.08.89.89,0,0,0-.27-.53A1.66,1.66,0,0,0,31.78,2.49Z"/><path class="cls-1" d="M34.61,7.05l0,.08-1.63-.76,0-.08.1,0a.47.47,0,0,0,.24.05.23.23,0,0,0,.14-.07A1.07,1.07,0,0,0,33.63,6l1-2.06a1.14,1.14,0,0,0,.12-.31.26.26,0,0,0-.05-.15.45.45,0,0,0-.19-.14l-.1,0,0-.08L36,4l0,.08-.1,0A.47.47,0,0,0,35.65,4,.24.24,0,0,0,35.5,4a1.08,1.08,0,0,0-.16.28l-1,2.06a1.11,1.11,0,0,0-.11.31.26.26,0,0,0,.05.15A.45.45,0,0,0,34.5,7Z"/><path class="cls-1" d="M41,7.51l-.59.73-.07-.06a1.47,1.47,0,0,0,.15-.47.7.7,0,0,0-.07-.35.87.87,0,0,0-.23-.25L40,6.94,38.34,9a1.12,1.12,0,0,0-.19.28.26.26,0,0,0,0,.16.45.45,0,0,0,.15.18l.09.07-.06.07L37,8.65,37,8.58l.09.07a.47.47,0,0,0,.22.11.24.24,0,0,0,.16,0,1.07,1.07,0,0,0,.23-.23l1.68-2.07-.19-.16a.72.72,0,0,0-.48-.2,1,1,0,0,0-.59.28L38,6.28l.59-.73Z"/><path class="cls-1" d="M42.66,9.19a1.71,1.71,0,0,1-.11,2.56,1.84,1.84,0,0,1-1.12.47A1.71,1.71,0,0,1,40,11.56a1.75,1.75,0,0,1-.47-1.5A1.82,1.82,0,0,1,40.14,9a1.72,1.72,0,0,1,1.31-.44A1.67,1.67,0,0,1,42.66,9.19Zm-.1.13a.78.78,0,0,0-.84-.23,2.57,2.57,0,0,0-1,.59,2.2,2.2,0,0,0-.78,1.09.71.71,0,0,0,.18.65.73.73,0,0,0,.38.25,1,1,0,0,0,.62-.08,2.87,2.87,0,0,0,.79-.52,3.07,3.07,0,0,0,.69-.77,1,1,0,0,0,.15-.56A.77.77,0,0,0,42.55,9.32Z"/><path class="cls-1" d="M44.13,17.82l-.08,0-.7-1.66.08,0,0,.11a.47.47,0,0,0,.14.2.23.23,0,0,0,.15,0,1.07,1.07,0,0,0,.31-.1l2.1-.89a1.15,1.15,0,0,0,.3-.16.26.26,0,0,0,.06-.15.45.45,0,0,0,0-.23l0-.11.08,0,.7,1.66-.08,0,0-.1a.47.47,0,0,0-.14-.2.24.24,0,0,0-.15,0,1.08,1.08,0,0,0-.31.1l-2.1.89a1.12,1.12,0,0,0-.3.16.26.26,0,0,0-.06.15.45.45,0,0,0,0,.23Z"/><path class="cls-1" d="M47.77,18.44l-1.63,2.2,1.43-.38a.71.71,0,0,0,.39-.2.49.49,0,0,0,0-.43l.09,0,.3,1.1-.09,0a.86.86,0,0,0-.15-.27.29.29,0,0,0-.17-.08,1,1,0,0,0-.35,0l-2.78.74,0-.08,2.18-3-2.13.57a.49.49,0,0,0-.36.24.5.5,0,0,0,0,.33l0,.08-.09,0-.32-1.19.09,0a.43.43,0,0,0,.63.36l2.36-.63.07-.09a.67.67,0,0,0,.13-.23.57.57,0,0,0,0-.25l.09,0Z"/><path class="cls-1" d="M48.62,23.12a1.71,1.71,0,0,1-1.59,2,1.84,1.84,0,0,1-1.18-.28,1.71,1.71,0,0,1-.78-1.38,1.75,1.75,0,0,1,.5-1.49,1.82,1.82,0,0,1,1.14-.5,1.72,1.72,0,0,1,1.32.41A1.67,1.67,0,0,1,48.62,23.12Zm-.16,0a.78.78,0,0,0-.54-.68,2.57,2.57,0,0,0-1.15-.1,2.2,2.2,0,0,0-1.27.42.71.71,0,0,0-.24.63.73.73,0,0,0,.17.43,1,1,0,0,0,.55.3,2.87,2.87,0,0,0,.94,0,3.08,3.08,0,0,0,1-.22,1,1,0,0,0,.45-.37A.77.77,0,0,0,48.46,23.17Z"/><path class="cls-1" d="M7.35,34.84l-2.5,1.33a1.77,1.77,0,0,0-.35.22.26.26,0,0,0-.07.17.55.55,0,0,0,.08.28l0,.07-.08,0-.85-1.61.08,0,0,.08a.71.71,0,0,0,.19.25.26.26,0,0,0,.18,0,1.57,1.57,0,0,0,.38-.17l1.58-.84a1.17,1.17,0,0,0,.26-.16.22.22,0,0,0,.05-.12.25.25,0,0,0,0-.15A.83.83,0,0,0,6.15,34l.06-.08,1.11.85Z"/><path class="cls-1" d="M7.93,38.5a1.92,1.92,0,0,1-.09.7,1,1,0,0,1-.34.43.92.92,0,0,1-.75.17A1.22,1.22,0,0,1,6,39.3a1.14,1.14,0,0,1-.28-.78.8.8,0,0,1,.32-.6.78.78,0,0,1,.49-.16,1.42,1.42,0,0,1,.63.2,2.07,2.07,0,0,1,.09-.73.9.9,0,0,1,.3-.37.8.8,0,0,1,.66-.13,1.16,1.16,0,0,1,.7.49,1.12,1.12,0,0,1,.27.75.72.72,0,0,1-.29.55.69.69,0,0,1-.43.14A1.25,1.25,0,0,1,7.93,38.5Zm0-.23a.89.89,0,0,0,.31-.06,1.23,1.23,0,0,0,.3-.17.78.78,0,0,0,.32-.42.36.36,0,0,0-.07-.32.39.39,0,0,0-.27-.16.42.42,0,0,0-.32.09.69.69,0,0,0-.23.34A1.92,1.92,0,0,0,7.91,38.26Zm-.73-.08H7a1,1,0,0,0-.26.08,1.55,1.55,0,0,0-.31.18,1.16,1.16,0,0,0-.29.29.45.45,0,0,0-.08.28.43.43,0,0,0,.08.23.41.41,0,0,0,.3.17.53.53,0,0,0,.38-.12A1.2,1.2,0,0,0,7.19,38.18Z"/><path class="cls-1" d="M10.6,39.27l-1.22.64.15.14A1.51,1.51,0,0,1,10,41c0,.35-.24.57-.52.78a1,1,0,0,1-.39.21c-.26,0-.53-.15-.52-.34a3,3,0,0,1,.09-.4.33.33,0,0,0,0-.2.26.26,0,0,0-.14-.16.27.27,0,0,0-.21,0,.32.32,0,0,0-.21.22.86.86,0,0,0,.06.66,1.67,1.67,0,0,0,.8.61,1.19,1.19,0,0,0,.69,0,1.22,1.22,0,0,0,.56-.32,1.06,1.06,0,0,0,.3-.87,2.39,2.39,0,0,0-.72-1.31l.33-.16.61.59c.16.15.53.36.78.25l.28-.13Z"/><path class="cls-1" d="M10.49,43.88l0-.06a2.24,2.24,0,0,0,.75.18,1.47,1.47,0,0,0,.65-.12,1.87,1.87,0,0,0,.56-.39l-.28-.06a.9.9,0,0,1-.58-.71,1.09,1.09,0,0,1,.23-.78,1.38,1.38,0,0,1,.47-.43,1,1,0,0,1,1.49.52,1.21,1.21,0,0,1,.06.66,1.69,1.69,0,0,1-.3.71,2.24,2.24,0,0,1-.81.71,2,2,0,0,1-1.1.21A2.55,2.55,0,0,1,10.49,43.88Zm2.16-.54.31-.4a3.37,3.37,0,0,0,.41-.77.65.65,0,0,0,0-.37.24.24,0,0,0-.1-.14.22.22,0,0,0-.22,0,1.15,1.15,0,0,0-.41.41,2,2,0,0,0-.42.89.33.33,0,0,0,.14.31A.63.63,0,0,0,12.65,43.35Z"/><path class="cls-1" d="M36.5,41.62,38.08,44a1.76,1.76,0,0,0,.25.32.26.26,0,0,0,.18.05.55.55,0,0,0,.27-.11l.07,0,0,.07-1.51,1,0-.07.08-.05a.71.71,0,0,0,.23-.22.26.26,0,0,0,0-.19,1.58,1.58,0,0,0-.21-.36l-1-1.49a1.16,1.16,0,0,0-.19-.24.22.22,0,0,0-.13,0,.26.26,0,0,0-.14,0,.83.83,0,0,0-.22.24l-.09,0,.73-1.19Z"/><path class="cls-1" d="M40.3,43.27l0-.05a2.25,2.25,0,0,0,.34-.69,1.47,1.47,0,0,0,0-.66,1.86,1.86,0,0,0-.25-.64,1.56,1.56,0,0,1-.13.26.9.9,0,0,1-.83.41,1.09,1.09,0,0,1-.71-.4,1.38,1.38,0,0,1-.31-.56,1,1,0,0,1,.85-1.33,1.21,1.21,0,0,1,.66.09,1.69,1.69,0,0,1,.62.45,2.23,2.23,0,0,1,.51,1,2,2,0,0,1,0,1.11A2.56,2.56,0,0,1,40.3,43.27Zm0-2.22-.32-.39a3.35,3.35,0,0,0-.66-.57.65.65,0,0,0-.35-.12.24.24,0,0,0-.16.07.22.22,0,0,0-.07.21,1.14,1.14,0,0,0,.31.49,2,2,0,0,0,.78.61.34.34,0,0,0,.34-.07A.63.63,0,0,0,40.27,41Z"/><path class="cls-1" d="M43,37.76a3.12,3.12,0,0,1,.67.71,1.31,1.31,0,0,1,.21.46,1.17,1.17,0,0,1,0,.43.82.82,0,0,1-.17.38.83.83,0,0,1-.38.28,1.2,1.2,0,0,1-.51.06,1.77,1.77,0,0,1-.48-.13,3,3,0,0,1-.7-.41,3.24,3.24,0,0,1-.72-.76,1.23,1.23,0,0,1-.23-.68.87.87,0,0,1,.69-.89,1.18,1.18,0,0,1,.67,0A3.08,3.08,0,0,1,43,37.76Zm-.49.61-.84-.64a1,1,0,0,0-.45-.2.25.25,0,0,0-.19.11.24.24,0,0,0-.06.17.54.54,0,0,0,.17.29q.16.16,1.22,1a6,6,0,0,0,.81.56.44.44,0,0,0,.26.06.28.28,0,0,0,.16-.11.23.23,0,0,0,.05-.2.81.81,0,0,0-.27-.37Z"/><path class="cls-1" d="M43,33.63l.07,0a2.43,2.43,0,0,0,0,.8,1.44,1.44,0,0,0,.24.58,2.16,2.16,0,0,0,.5.49.76.76,0,0,1,0-.21,1.15,1.15,0,0,1,.08-.33.84.84,0,0,1,.51-.49,1.09,1.09,0,0,1,.81.06,1.4,1.4,0,0,1,.52.37,1,1,0,0,1,.25.54,1.05,1.05,0,0,1-.07.57,1.07,1.07,0,0,1-.39.47,1.15,1.15,0,0,1-.64.19,1.76,1.76,0,0,1-.73-.15,2.19,2.19,0,0,1-.89-.68,2.07,2.07,0,0,1-.42-1A2.37,2.37,0,0,1,43,33.63Zm1,2,.44.28a3.37,3.37,0,0,0,.63.28,1,1,0,0,0,.49.07.26.26,0,0,0,.18-.13.26.26,0,0,0,0-.25,1.11,1.11,0,0,0-.44-.36,2,2,0,0,0-.93-.34.34.34,0,0,0-.3.17A.62.62,0,0,0,44,35.58Z"/><path class="cls-1" d="M45.34,13a3.5,3.5,0,0,0-.44-.81L44,10.84l-.07,0a.82.82,0,0,1,.15.29.25.25,0,0,1,0,.17,1.05,1.05,0,0,1-.27.23L41.9,12.83a1.05,1.05,0,0,1-.31.17.26.26,0,0,1-.16,0,.8.8,0,0,1-.22-.24l-.07,0,1,1.47.07,0a.82.82,0,0,1-.15-.29.25.25,0,0,1,0-.17,1.06,1.06,0,0,1,.27-.23l.81-.55.13.19A3.42,3.42,0,0,1,43,14.37c-.32.6-.23.68-.15.89l.38.59.08-.05a.44.44,0,0,1-.06-.25,5.18,5.18,0,0,0,.38-.65,3.09,3.09,0,0,0,.19-1,1.12,1.12,0,0,0,.51.23A.82.82,0,0,0,45,14a.86.86,0,0,0,.35-.46A.92.92,0,0,0,45.34,13Zm-.45-.14a.8.8,0,0,1-.38.48.85.85,0,0,1-.42.16.53.53,0,0,1-.35-.1,1.63,1.63,0,0,1-.35-.4l-.08-.12L44.56,12l.15.23A.81.81,0,0,1,44.89,12.84Z"/><path class="cls-1" d="M24.43,43.09c-.17,0-.21.23-.25.35a.83.83,0,0,0-.06.38c0,.24,0,.17.08.34a1.1,1.1,0,0,0-.37.06l-.4.13c-.13,0-.27,0-.39.09a.77.77,0,0,0-.26.3.58.58,0,0,0,0,.16c0,.07.08.06.15.06s.18-.19.28-.28a1.45,1.45,0,0,1,.9-.31c.17,0,.22.11.44.25.06,0,.09,0,.13,0a1.43,1.43,0,0,0,.07-.3,2.52,2.52,0,0,1,.14-.57.25.25,0,0,0,0-.28l-.19-.16Zm2.92-1.22s0-.07-.09-.05l.05.18C27.37,42,27.35,41.9,27.35,41.86Zm-.43,0c0-.09,0-.18-.16-.14v.18C26.81,41.88,26.88,41.94,26.92,41.86Zm2.25,0s0-.05,0-.09-.45-.13-.49.09ZM27,42.24v-.13c-.09,0-.16.05-.18.09S27,42.22,27,42.24Zm.9.05c0-.09,0-.13-.07-.18s-.09.09-.05.18ZM29,42.21c-.07-.18-.27,0-.31,0a.18.18,0,0,0,.22.09C29,42.35,29,42.26,29,42.21Zm-1.91.38c0-.07-.11,0-.16,0l0,.13Zm1.82,0-1,0c-.11.05,0,.13,0,.18C28.34,42.62,28.79,43,29,42.58Zm-5.18.4v-.13H21.15l0,.13A13.87,13.87,0,0,0,23.77,43Zm3.49,0s-.07-.07-.13-.07l0,.13C27.15,43.05,27.24,43.11,27.26,43Zm1.6,0A2.33,2.33,0,0,0,28,43,1.74,1.74,0,0,0,28.86,43Zm-5.18.31c-.81-.09-1.58,0-2.32-.09l-.14.09A14.13,14.13,0,0,0,23.68,43.32Zm5.05.13s-.05,0,0-.07c-.2,0-.49-.22-.52.07Zm-.86,0s-.07-.11-.13-.09-.09.22,0,.22S27.89,43.47,27.87,43.41Zm-4.19.31c-.72-.09-1.53,0-2.25-.09l-.07.13c.79-.05,1.62.11,2.32,0Zm4.93.09c-.05-.14-.2-.07-.31-.09s-.13.11,0,.16S28.56,43.9,28.61,43.81Zm-5.7.38V44H21.49l0,.16Zm5.48,0c-.07-.07-.22,0-.31,0a.16.16,0,0,0,.22.13A.07.07,0,0,0,28.4,44.18Zm-5.83.31c-.29,0-.76-.13-.92,0A2,2,0,0,0,22.57,44.49Zm5.65.09c-.2-.27-.54-.07-.77,0a3.85,3.85,0,0,0,.77,0Zm-5.74.31c-.16-.09-.38,0-.56-.05V45Zm2.77,0c-.45,0-.93-.11-1.44-.05l.05.13L25.1,45A.15.15,0,0,0,25.25,44.89ZM28,45v-.13h-.9V45Zm-2.59.31c-1.15,0-2.16-.13-3.27-.09l-.05.13A29.15,29.15,0,0,0,25.41,45.32Zm2.43,0a3.76,3.76,0,0,0-.92,0l.92,0Zm-2.55.29c-1,0-2.16,0-3,0l0,.14,3.07,0C25.39,45.71,25.32,45.66,25.28,45.6Zm2.28.14c-.16-.22-.5,0-.68,0C27.1,45.75,27.41,45.93,27.57,45.75ZM25,46c-.81-.07-1.65,0-2.46,0v.09c.76.09,1.51.05,2.37.13C25,46.16,25.05,46.13,25,46Zm2.23.14c0-.05,0-.11,0-.14-.25.07-.67-.14-.74.18Zm-2.59.29c-.58-.07-1.2,0-1.8,0l-.05,0,.18.09Zm2.16.14.14-.14-.83,0v.13c.11,0,.29-.07.34.09,0,.47-.5,0-.65.25.27,0,.52.16.77.05,0-.13-.07-.29.09-.34A.06.06,0,0,1,26.83,46.61Zm-2.16.25c-.4-.09-1-.07-1.42-.13V47l1.42-.05Zm.05.43c-.31-.31-.72,0-1.08-.13.05.4.63.14,1,.22Zm1.51,0c-.22,0-.59-.14-.7.07a1.16,1.16,0,0,0,.7,0Zm-.34.38c-.59-.07-1.22,0-1.82,0l0,.13,1.64,0A.13.13,0,0,0,25.9,47.64Zm-.52.4c-.27.09-.63-.2-.74.09l.74-.05Zm.16-12.64c-.18-.07-.22-.27-.34-.4-.31-.13-.23.34-.52.4-.05-.22-.29-.22-.43-.31-.18.09-.13.27-.25.38s-.22,0-.31-.07c-.16.61-.77-.14-.86.47.36-.11.67.25,1-.18.29.52.38-.23.74-.07.34.63.65-.56,1,.25.18,0,.34-.47.52-.13s.52-.14.77-.05c-.13-.2-.29,0-.47,0a1.42,1.42,0,0,1-.31-.56C25.81,35,25.73,35.34,25.54,35.39Zm-.68,1.15c-.18-.11.18-.36-.13-.34l-.05.4C24.73,36.58,24.82,36.63,24.85,36.54Zm1.64.7a4.07,4.07,0,0,0-3,0,8.51,8.51,0,0,0,2.64.18Zm-3,1v0a2.47,2.47,0,0,0-.74,0Zm.34,0,3.38,0-3.45,0Zm2.09,1.87c-.58-1-1.62-1.06-2.34-1.69l0,.09c.45.22,0,.63.22,1-.05.32-.68,1,0,1.08.09-.11.23-.25.34-.18l-.31.52.52.38c-.23.14-.5-.14-.74-.29s-.88-.4-1.15-.09h.43c.34.09.05.43.07.65s.09.38.27.34-.09-.29-.05-.47.16-.23.31-.22l.86.81c.23.13.34-.22.56,0-.07.23-.4.27-.65.31.23.25.32.61.58.81.94.34.45,1.47,1,2.16.29.81-.94.92-.74,1.69.36,0,.22-.43.4-.61.18-.54,1-.59.83-1.29a1.41,1.41,0,0,1,1.2-1c-.68-.07-.79-.83-1.13-1.26.07-.63-.29-1-.25-1.51C26,40.91,26.11,40.44,25.9,40.14Zm-2.64-1.51a7.23,7.23,0,0,0-2.1-.14l-.09.14A9,9,0,0,0,23.25,38.63Zm5.79,0L29,38.48h-4.5l-.07.09.07.09C26,38.74,27.53,38.74,29,38.66ZM23.31,39c-.76-.09-1.56,0-2.34-.05v.14A14.38,14.38,0,0,0,23.31,39ZM29,39H25.41l.13.16,3.6,0C29.13,39,29.06,39,29,39Zm-5.79.47v0c-.81-.09-1.49,0-2.32-.05v.09A12.48,12.48,0,0,0,23.25,39.44Zm5.92,0c-1.13-.05-2.28-.05-3.33,0a13.64,13.64,0,0,0,3.33.09Zm-6,.34c-.72-.07-1.49,0-2.23,0l0,.13h2.16Zm6,.18v-.13l-2.93-.05v.14ZM23,40.3v-.16l-2.16-.05-.09.09A8.29,8.29,0,0,0,23,40.3Zm6.17,0a15.63,15.63,0,0,0-2.66-.13v.16a16.45,16.45,0,0,0,2.66,0Zm-7,.31a4.46,4.46,0,0,0-1.38,0A5.9,5.9,0,0,0,22.23,40.57Zm7,.07c-.86-.16-1.67,0-2.55-.13,0,.09-.2,0-.13.13a1.24,1.24,0,0,0,1,0c.45.36,1.11,0,1.64.13ZM21.87,41c-.16-.25-.63-.09-.93-.14V41Zm5.05,0a.21.21,0,0,0-.25,0,.29.29,0,0,0,.16.09C26.87,41.07,26.94,41.06,26.92,41Zm2.28.13V41l-.9-.05c-.11.25.47.29.22.56a2.21,2.21,0,0,0,.68,0v0c-.14-.11-.4,0-.5-.14S29,41.29,29.2,41.13Zm-1.11.34c-.07-.13-.13-.38-.34-.34-.11.23.23.45.31.65C28.13,41.7,28.07,41.58,28.09,41.47Zm-5.92-.13a4,4,0,0,0-1.24-.09l-.05.09c.36.23.86.09,1.29.13Zm.43.43a7,7,0,0,0-1.67-.09v.09A10.38,10.38,0,0,0,22.61,41.78Zm1.85-7.68a.56.56,0,0,0-.07.56l.29.25c.11-.14.32-.25.27-.47a.4.4,0,0,1-.13-.52.38.38,0,0,1,.5-.13.35.35,0,0,1,.14.47c-.2.09-.11.29-.14.43l.22.22c.22,0,.22-.25.4-.34,0-.18-.27-.45,0-.61a.25.25,0,0,1,.43,0c.2.09.11.27.13.43s-.36.22-.25.43.22.25.34.13c.34-.22,0-.74.43-.9a.44.44,0,0,1,.43.34c.09.31-.52.43-.25.68.61.09.23-.9.9-.72.07.16.45.38.13.56-.14.13-.41.22-.31.43.43.18.84-.88,1.17-.13,0,.22-.23.27-.34.43-.59-.13-.77.5-1.17.77.07.38-.5.61-.16,1l-.65.47a3.58,3.58,0,0,0,2.37.05,9.06,9.06,0,0,1,.07,5.27l-.5,1.15a11.32,11.32,0,0,1-3.63,4.41,9.57,9.57,0,0,1-4.35-10.18c0-.36.23-.81.68-.56a2.3,2.3,0,0,0,1.69-.22c-.09-.25-.7-.32-.4-.7.11-.32-.47-.47-.34-.86-.36-.38-.7-.88-1.26-1-.07-.09,0-.22,0-.34a.47.47,0,0,1,.56-.13,1.23,1.23,0,0,0,.65.56c.05-.05.13-.05.18-.13-.07-.36-.68-.32-.52-.83a.41.41,0,0,1,.52-.16c.25.22.13.79.65.81.4-.4-.9-.76,0-1.11a.4.4,0,0,1,.43.31c-.14.27,0,.5.22.68.18,0,.2-.2.29-.31-.13-.18-.34-.36-.25-.65S24.44,33.68,24.46,34.1Z"/></g></svg>